<svg xmlns="http://www.w3.org/2000/svg">
<line x1="113.0" y1="249" x2="113.5" y2="249.5" style="stroke:rgb(255,0,0);stroke-width:2" />
<line x1="113.5" y1="249.5" x2="113.57614662261302" y2="251.59396980215007" style="stroke:rgb(255,0,0);stroke-width:2" />
<line x1="113.57614662261302" y1="251.59396980215007" x2="113.80449371752198" y2="253.68538842464753" style="stroke:rgb(255,0,0);stroke-width:2" />
<line x1="113.80449371752198" y1="253.68538842464753" x2="114.18476307896584" y2="255.77170779605922" style="stroke:rgb(255,0,0);stroke-width:2" />
<line x1="114.18476307896584" y1="255.77170779605922" x2="114.7164914073037" y2="257.85038605760394" style="stroke:rgb(255,0,0);stroke-width:2" />
<line x1="114.7164914073037" y1="257.85038605760394" x2="115.399030873474" y2="259.9188906600158" style="stroke:rgb(255,0,0);stroke-width:2" />
<line x1="115.399030873474" y1="259.9188906600158" x2="116.23154990827429" y2="261.97470144906555" style="stroke:rgb(255,0,0);stroke-width:2" />
<line x1="116.23154990827429" y1="261.97470144906555" x2="117.21303421550044" y2="264.01531373598004" style="stroke:rgb(255,0,0);stroke-width:2" />
<line x1="117.21303421550044" y1="264.01531373598004" x2="118.34228800771014" y2="266.0382413490199" style="stroke:rgb(255,0,0);stroke-width:2" />
<line x1="118.34228800771014" y1="266.0382413490199" x2="119.61793546310581" y2="268.04101966249686" style="stroke:rgb(255,0,0);stroke-width:2" />
<line x1="119.61793546310581" y1="268.04101966249686" x2="121.03842240176145" y2="270.0212085995401" style="stroke:rgb(255,0,0);stroke-width:2" />
<line x1="121.03842240176145" y1="270.0212085995401" x2="122.60201817915157" y2="271.97639560495475" style="stroke:rgb(255,0,0);stroke-width:2" />
<line x1="122.60201817915157" y1="271.97639560495475" x2="124.30681779467488" y2="273.904198584548" style="stroke:rgb(255,0,0);stroke-width:2" />
<line x1="124.30681779467488" y1="273.904198584548" x2="126.15074421260412" y2="275.80226880734466" style="stroke:rgb(255,0,0);stroke-width:2" />
<line x1="126.15074421260412" y1="275.80226880734466" x2="128.13155089263412" y2="277.66829376715344" style="stroke:rgb(255,0,0);stroke-width:2" />
<line x1="128.13155089263412" y1="277.66829376715344" x2="130.24682452694515" y2="279.5" style="stroke:rgb(255,0,0);stroke-width:2" />
<line x1="130.24682452694515" y1="279.5" x2="132.49398798044678" y2="281.2951558539923" style="stroke:rgb(255,0,0);stroke-width:2" />
<line x1="132.49398798044678" y1="281.2951558539923" x2="134.8703034306198" y2="283.0515742082448" style="stroke:rgb(255,0,0);stroke-width:2" />
<line x1="134.8703034306198" y1="283.0515742082448" x2="137.37287570313157" y2="284.7671151375484" style="stroke:rgb(255,0,0);stroke-width:2" />
<line x1="137.37287570313157" y1="284.7671151375484" x2="139.99865579915974" y2="286.43968851953946" style="stroke:rgb(255,0,0);stroke-width:2" />
<line x1="139.99865579915974" y1="286.43968851953946" x2="142.74444461012774" y2="288.06725658119234" style="stroke:rgb(255,0,0);stroke-width:2" />
<line x1="142.74444461012774" y1="288.06725658119234" x2="145.60689681532574" y2="289.6478363815315" style="stroke:rgb(255,0,0);stroke-width:2" />
<line x1="145.60689681532574" y1="289.6478363815315" x2="148.5825249576686" y2="291.17950222753984" style="stroke:rgb(255,0,0);stroke-width:2" />
<line x1="148.5825249576686" y1="291.17950222753984" x2="151.6677036926253" y2="292.66038802031903" style="stroke:rgb(255,0,0);stroke-width:2" />
<line x1="151.6677036926253" y1="292.66038802031903" x2="154.85867420514273" y2="294.08868952864367" style="stroke:rgb(255,0,0);stroke-width:2" />
<line x1="154.85867420514273" y1="294.08868952864367" x2="158.15154878918258" y2="295.4626665871387" style="stroke:rgb(255,0,0);stroke-width:2" />
<line x1="158.15154878918258" y1="295.4626665871387" x2="161.5423155842927" y2="296.78064521640334" style="stroke:rgb(255,0,0);stroke-width:2" />
<line x1="161.5423155842927" y1="296.78064521640334" x2="165.02684346344085" y2="298.04101966249686" style="stroke:rgb(255,0,0);stroke-width:2" />
<line x1="165.02684346344085" y1="298.04101966249686" x2="168.60088706615664" y2="299.2422543533025" style="stroke:rgb(255,0,0);stroke-width:2" />
<line x1="168.60088706615664" y1="299.2422543533025" x2="172.26009197084937" y2="300.38288576938555" style="stroke:rgb(255,0,0);stroke-width:2" />
<line x1="172.26009197084937" y1="300.38288576938555" x2="176.0" y2="301.4615242270663" style="stroke:rgb(255,0,0);stroke-width:2" />
<line x1="176.0" y1="301.4615242270663" x2="179.81605465176364" y2="302.4768555715356" style="stroke:rgb(255,0,0);stroke-width:2" />
<line x1="179.81605465176364" y1="302.4768555715356" x2="183.7036066513653" y2="303.42764277795004" style="stroke:rgb(255,0,0);stroke-width:2" />
<line x1="183.7036066513653" y1="303.42764277795004" x2="187.65791961552497" y2="304.3127274585561" style="stroke:rgb(255,0,0);stroke-width:2" />
<line x1="187.65791961552497" y1="304.3127274585561" x2="191.674175823011" y2="305.1310312740072" style="stroke:rgb(255,0,0);stroke-width:2" />
<line x1="191.674175823011" y1="305.1310312740072" x2="195.7474820842914" y2="305.8815572471545" style="stroke:rgb(255,0,0);stroke-width:2" />
<line x1="195.7474820842914" y1="305.8815572471545" x2="199.87287570313157" y2="306.5633909777092" style="stroke:rgb(255,0,0);stroke-width:2" />
<line x1="199.87287570313157" y1="306.5633909777092" x2="204.0453305228751" y2="307.17570175629913" style="stroke:rgb(255,0,0);stroke-width:2" />
<line x1="204.0453305228751" y1="307.17570175629913" x2="208.2597630500415" y2="307.71774357655977" style="stroke:rgb(255,0,0);stroke-width:2" />
<line x1="208.2597630500415" y1="307.71774357655977" x2="212.51103864778008" y2="308.18885604402834" style="stroke:rgb(255,0,0);stroke-width:2" />
<line x1="212.51103864778008" y1="308.18885604402834" x2="216.7939777916337" y2="308.5884651807325" style="stroke:rgb(255,0,0);stroke-width:2" />
<line x1="216.7939777916337" y1="308.5884651807325" x2="221.10336237999178" y2="308.9160841244942" style="stroke:rgb(255,0,0);stroke-width:2" />
<line x1="221.10336237999178" y1="308.9160841244942" x2="225.43394209154332" y2="309.1713137220964" style="stroke:rgb(255,0,0);stroke-width:2" />
<line x1="225.43394209154332" y1="309.1713137220964" x2="229.7804407819843" y2="309.35384301558946" style="stroke:rgb(255,0,0);stroke-width:2" />
<line x1="229.7804407819843" y1="309.35384301558946" x2="234.13756291218738" y2="309.46344962114574" style="stroke:rgb(255,0,0);stroke-width:2" />
<line x1="234.13756291218738" y1="309.46344962114574" x2="238.5" y2="309.5" style="stroke:rgb(255,0,0);stroke-width:2" />
<line x1="238.5" y1="309.5" x2="242.8624370878126" y2="309.46344962114574" style="stroke:rgb(255,0,0);stroke-width:2" />
<line x1="242.8624370878126" y1="309.46344962114574" x2="247.21955921801566" y2="309.35384301558946" style="stroke:rgb(255,0,0);stroke-width:2" />
<line x1="247.21955921801566" y1="309.35384301558946" x2="251.56605790845666" y2="309.1713137220964" style="stroke:rgb(255,0,0);stroke-width:2" />
<line x1="251.56605790845666" y1="309.1713137220964" x2="255.89663762000816" y2="308.9160841244942" style="stroke:rgb(255,0,0);stroke-width:2" />
<line x1="255.89663762000816" y1="308.9160841244942" x2="260.2060222083663" y2="308.5884651807325" style="stroke:rgb(255,0,0);stroke-width:2" />
<line x1="260.2060222083663" y1="308.5884651807325" x2="264.4889613522199" y2="308.18885604402834" style="stroke:rgb(255,0,0);stroke-width:2" />
<line x1="264.4889613522199" y1="308.18885604402834" x2="268.74023694995844" y2="307.71774357655977" style="stroke:rgb(255,0,0);stroke-width:2" />
<line x1="268.74023694995844" y1="307.71774357655977" x2="272.95466947712487" y2="307.17570175629913" style="stroke:rgb(255,0,0);stroke-width:2" />
<line x1="272.95466947712487" y1="307.17570175629913" x2="277.12712429686843" y2="306.5633909777092" style="stroke:rgb(255,0,0);stroke-width:2" />
<line x1="277.12712429686843" y1="306.5633909777092" x2="281.2525179157086" y2="305.8815572471545" style="stroke:rgb(255,0,0);stroke-width:2" />
<line x1="281.2525179157086" y1="305.8815572471545" x2="285.325824176989" y2="305.1310312740072" style="stroke:rgb(255,0,0);stroke-width:2" />
<line x1="285.325824176989" y1="305.1310312740072" x2="289.342080384475" y2="304.3127274585561" style="stroke:rgb(255,0,0);stroke-width:2" />
<line x1="289.342080384475" y1="304.3127274585561" x2="293.2963933486347" y2="303.42764277795004" style="stroke:rgb(255,0,0);stroke-width:2" />
<line x1="293.2963933486347" y1="303.42764277795004" x2="297.1839453482363" y2="302.4768555715356" style="stroke:rgb(255,0,0);stroke-width:2" />
<line x1="297.1839453482363" y1="302.4768555715356" x2="301.0" y2="301.4615242270663" style="stroke:rgb(255,0,0);stroke-width:2" />
<line x1="301.0" y1="301.4615242270663" x2="304.73990802915057" y2="300.38288576938555" style="stroke:rgb(255,0,0);stroke-width:2" />
<line x1="304.73990802915057" y1="300.38288576938555" x2="308.39911293384336" y2="299.2422543533025" style="stroke:rgb(255,0,0);stroke-width:2" />
<line x1="308.39911293384336" y1="299.2422543533025" x2="311.97315653655915" y2="298.04101966249686" style="stroke:rgb(255,0,0);stroke-width:2" />
<line x1="311.97315653655915" y1="298.04101966249686" x2="315.45768441570726" y2="296.78064521640334" style="stroke:rgb(255,0,0);stroke-width:2" />
<line x1="315.45768441570726" y1="296.78064521640334" x2="318.8484512108174" y2="295.4626665871387" style="stroke:rgb(255,0,0);stroke-width:2" />
<line x1="318.8484512108174" y1="295.4626665871387" x2="322.14132579485727" y2="294.08868952864367" style="stroke:rgb(255,0,0);stroke-width:2" />
<line x1="322.14132579485727" y1="294.08868952864367" x2="325.33229630737463" y2="292.6603880203191" style="stroke:rgb(255,0,0);stroke-width:2" />
<line x1="325.33229630737463" y1="292.6603880203191" x2="328.4174750423314" y2="291.17950222753984" style="stroke:rgb(255,0,0);stroke-width:2" />
<line x1="328.4174750423314" y1="291.17950222753984" x2="331.39310318467426" y2="289.6478363815315" style="stroke:rgb(255,0,0);stroke-width:2" />
<line x1="331.39310318467426" y1="289.6478363815315" x2="334.25555538987226" y2="288.0672565811924" style="stroke:rgb(255,0,0);stroke-width:2" />
<line x1="334.25555538987226" y1="288.0672565811924" x2="337.0013442008402" y2="286.4396885195395" style="stroke:rgb(255,0,0);stroke-width:2" />
<line x1="337.0013442008402" y1="286.4396885195395" x2="339.62712429686843" y2="284.7671151375484" style="stroke:rgb(255,0,0);stroke-width:2" />
<line x1="339.62712429686843" y1="284.7671151375484" x2="342.1296965693802" y2="283.0515742082448" style="stroke:rgb(255,0,0);stroke-width:2" />
<line x1="342.1296965693802" y1="283.0515742082448" x2="344.5060120195532" y2="281.2951558539923" style="stroke:rgb(255,0,0);stroke-width:2" />
<line x1="344.5060120195532" y1="281.2951558539923" x2="346.75317547305485" y2="279.5" style="stroke:rgb(255,0,0);stroke-width:2" />
<line x1="346.75317547305485" y1="279.5" x2="348.86844910736585" y2="277.66829376715344" style="stroke:rgb(255,0,0);stroke-width:2" />
<line x1="348.86844910736585" y1="277.66829376715344" x2="350.84925578739586" y2="275.80226880734466" style="stroke:rgb(255,0,0);stroke-width:2" />
<line x1="350.84925578739586" y1="275.80226880734466" x2="352.6931822053251" y2="273.904198584548" style="stroke:rgb(255,0,0);stroke-width:2" />
<line x1="352.6931822053251" y1="273.904198584548" x2="354.39798182084843" y2="271.97639560495475" style="stroke:rgb(255,0,0);stroke-width:2" />
<line x1="354.39798182084843" y1="271.97639560495475" x2="355.96157759823853" y2="270.02120859954016" style="stroke:rgb(255,0,0);stroke-width:2" />
<line x1="355.96157759823853" y1="270.02120859954016" x2="357.3820645368942" y2="268.04101966249686" style="stroke:rgb(255,0,0);stroke-width:2" />
<line x1="357.3820645368942" y1="268.04101966249686" x2="358.6577119922898" y2="266.03824134902" style="stroke:rgb(255,0,0);stroke-width:2" />
<line x1="358.6577119922898" y1="266.03824134902" x2="359.78696578449956" y2="264.01531373598004" style="stroke:rgb(255,0,0);stroke-width:2" />
<line x1="359.78696578449956" y1="264.01531373598004" x2="360.7684500917257" y2="261.97470144906555" style="stroke:rgb(255,0,0);stroke-width:2" />
<line x1="360.7684500917257" y1="261.97470144906555" x2="361.600969126526" y2="259.9188906600158" style="stroke:rgb(255,0,0);stroke-width:2" />
<line x1="361.600969126526" y1="259.9188906600158" x2="362.2835085926963" y2="257.85038605760394" style="stroke:rgb(255,0,0);stroke-width:2" />
<line x1="362.2835085926963" y1="257.85038605760394" x2="362.81523692103417" y2="255.77170779605922" style="stroke:rgb(255,0,0);stroke-width:2" />
<line x1="362.81523692103417" y1="255.77170779605922" x2="363.19550628247805" y2="253.68538842464753" style="stroke:rgb(255,0,0);stroke-width:2" />
<line x1="363.19550628247805" y1="253.68538842464753" x2="363.423853377387" y2="251.59396980215004" style="stroke:rgb(255,0,0);stroke-width:2" />
<line x1="363.423853377387" y1="251.59396980215004" x2="363.5" y2="249.5" style="stroke:rgb(255,0,0);stroke-width:2" />
<line x1="363.5" y1="249.5" x2="363.423853377387" y2="247.40603019784996" style="stroke:rgb(255,0,0);stroke-width:2" />
<line x1="363.423853377387" y1="247.40603019784996" x2="363.19550628247805" y2="245.3146115753525" style="stroke:rgb(255,0,0);stroke-width:2" />
<line x1="363.19550628247805" y1="245.3146115753525" x2="362.81523692103417" y2="243.2282922039408" style="stroke:rgb(255,0,0);stroke-width:2" />
<line x1="362.81523692103417" y1="243.2282922039408" x2="362.2835085926963" y2="241.14961394239606" style="stroke:rgb(255,0,0);stroke-width:2" />
<line x1="362.2835085926963" y1="241.14961394239606" x2="361.600969126526" y2="239.08110933998418" style="stroke:rgb(255,0,0);stroke-width:2" />
<line x1="361.600969126526" y1="239.08110933998418" x2="360.7684500917257" y2="237.02529855093445" style="stroke:rgb(255,0,0);stroke-width:2" />
<line x1="360.7684500917257" y1="237.02529855093445" x2="359.78696578449956" y2="234.98468626401996" style="stroke:rgb(255,0,0);stroke-width:2" />
<line x1="359.78696578449956" y1="234.98468626401996" x2="358.6577119922899" y2="232.96175865098007" style="stroke:rgb(255,0,0);stroke-width:2" />
<line x1="358.6577119922899" y1="232.96175865098007" x2="357.3820645368942" y2="230.95898033750314" style="stroke:rgb(255,0,0);stroke-width:2" />
<line x1="357.3820645368942" y1="230.95898033750314" x2="355.96157759823853" y2="228.97879140045987" style="stroke:rgb(255,0,0);stroke-width:2" />
<line x1="355.96157759823853" y1="228.97879140045987" x2="354.39798182084843" y2="227.02360439504528" style="stroke:rgb(255,0,0);stroke-width:2" />
<line x1="354.39798182084843" y1="227.02360439504528" x2="352.6931822053251" y2="225.095801415452" style="stroke:rgb(255,0,0);stroke-width:2" />
<line x1="352.6931822053251" y1="225.095801415452" x2="350.8492557873959" y2="223.19773119265537" style="stroke:rgb(255,0,0);stroke-width:2" />
<line x1="350.8492557873959" y1="223.19773119265537" x2="348.86844910736585" y2="221.33170623284656" style="stroke:rgb(255,0,0);stroke-width:2" />
<line x1="348.86844910736585" y1="221.33170623284656" x2="346.75317547305485" y2="219.5" style="stroke:rgb(255,0,0);stroke-width:2" />
<line x1="346.75317547305485" y1="219.5" x2="344.5060120195533" y2="217.7048441460077" style="stroke:rgb(255,0,0);stroke-width:2" />
<line x1="344.5060120195533" y1="217.7048441460077" x2="342.12969656938026" y2="215.9484257917552" style="stroke:rgb(255,0,0);stroke-width:2" />
<line x1="342.12969656938026" y1="215.9484257917552" x2="339.62712429686843" y2="214.2328848624516" style="stroke:rgb(255,0,0);stroke-width:2" />
<line x1="339.62712429686843" y1="214.2328848624516" x2="337.00134420084026" y2="212.56031148046054" style="stroke:rgb(255,0,0);stroke-width:2" />
<line x1="337.00134420084026" y1="212.56031148046054" x2="334.25555538987226" y2="210.93274341880766" style="stroke:rgb(255,0,0);stroke-width:2" />
<line x1="334.25555538987226" y1="210.93274341880766" x2="331.39310318467426" y2="209.35216361846852" style="stroke:rgb(255,0,0);stroke-width:2" />
<line x1="331.39310318467426" y1="209.35216361846852" x2="328.4174750423314" y2="207.82049777246016" style="stroke:rgb(255,0,0);stroke-width:2" />
<line x1="328.4174750423314" y1="207.82049777246016" x2="325.3322963073747" y2="206.33961197968094" style="stroke:rgb(255,0,0);stroke-width:2" />
<line x1="325.3322963073747" y1="206.33961197968094" x2="322.1413257948573" y2="204.91131047135636" style="stroke:rgb(255,0,0);stroke-width:2" />
<line x1="322.1413257948573" y1="204.91131047135636" x2="318.8484512108174" y2="203.53733341286133" style="stroke:rgb(255,0,0);stroke-width:2" />
<line x1="318.8484512108174" y1="203.53733341286133" x2="315.45768441570726" y2="202.21935478359666" style="stroke:rgb(255,0,0);stroke-width:2" />
<line x1="315.45768441570726" y1="202.21935478359666" x2="311.97315653655915" y2="200.95898033750316" style="stroke:rgb(255,0,0);stroke-width:2" />
<line x1="311.97315653655915" y1="200.95898033750316" x2="308.3991129338434" y2="199.75774564669751" style="stroke:rgb(255,0,0);stroke-width:2" />
<line x1="308.3991129338434" y1="199.75774564669751" x2="304.7399080291506" y2="198.61711423061445" style="stroke:rgb(255,0,0);stroke-width:2" />
<line x1="304.7399080291506" y1="198.61711423061445" x2="301.00000000000006" y2="197.53847577293368" style="stroke:rgb(255,0,0);stroke-width:2" />
<line x1="301.00000000000006" y1="197.53847577293368" x2="297.18394534823636" y2="196.52314442846438" style="stroke:rgb(255,0,0);stroke-width:2" />
<line x1="297.18394534823636" y1="196.52314442846438" x2="293.2963933486347" y2="195.57235722205" style="stroke:rgb(255,0,0);stroke-width:2" />
<line x1="293.2963933486347" y1="195.57235722205" x2="289.342080384475" y2="194.68727254144395" style="stroke:rgb(255,0,0);stroke-width:2" />
<line x1="289.342080384475" y1="194.68727254144395" x2="285.32582417698904" y2="193.86896872599277" style="stroke:rgb(255,0,0);stroke-width:2" />
<line x1="285.32582417698904" y1="193.86896872599277" x2="281.25251791570867" y2="193.1184427528455" style="stroke:rgb(255,0,0);stroke-width:2" />
<line x1="281.25251791570867" y1="193.1184427528455" x2="277.12712429686843" y2="192.43660902229078" style="stroke:rgb(255,0,0);stroke-width:2" />
<line x1="277.12712429686843" y1="192.43660902229078" x2="272.95466947712487" y2="191.82429824370087" style="stroke:rgb(255,0,0);stroke-width:2" />
<line x1="272.95466947712487" y1="191.82429824370087" x2="268.74023694995844" y2="191.2822564234402" style="stroke:rgb(255,0,0);stroke-width:2" />
<line x1="268.74023694995844" y1="191.2822564234402" x2="264.48896135222" y2="190.81114395597166" style="stroke:rgb(255,0,0);stroke-width:2" />
<line x1="264.48896135222" y1="190.81114395597166" x2="260.2060222083663" y2="190.4115348192675" style="stroke:rgb(255,0,0);stroke-width:2" />
<line x1="260.2060222083663" y1="190.4115348192675" x2="255.8966376200081" y2="190.0839158755058" style="stroke:rgb(255,0,0);stroke-width:2" />
<line x1="255.8966376200081" y1="190.0839158755058" x2="251.56605790845668" y2="189.82868627790359" style="stroke:rgb(255,0,0);stroke-width:2" />
<line x1="251.56605790845668" y1="189.82868627790359" x2="247.2195592180157" y2="189.64615698441054" style="stroke:rgb(255,0,0);stroke-width:2" />
<line x1="247.2195592180157" y1="189.64615698441054" x2="242.8624370878127" y2="189.53655037885426" style="stroke:rgb(255,0,0);stroke-width:2" />
<line x1="242.8624370878127" y1="189.53655037885426" x2="238.50000000000003" y2="189.5" style="stroke:rgb(255,0,0);stroke-width:2" />
<line x1="238.50000000000003" y1="189.5" x2="234.13756291218735" y2="189.53655037885426" style="stroke:rgb(255,0,0);stroke-width:2" />
<line x1="234.13756291218735" y1="189.53655037885426" x2="229.78044078198434" y2="189.64615698441054" style="stroke:rgb(255,0,0);stroke-width:2" />
<line x1="229.78044078198434" y1="189.64615698441054" x2="225.43394209154337" y2="189.82868627790359" style="stroke:rgb(255,0,0);stroke-width:2" />
<line x1="225.43394209154337" y1="189.82868627790359" x2="221.1033623799918" y2="190.0839158755058" style="stroke:rgb(255,0,0);stroke-width:2" />
<line x1="221.1033623799918" y1="190.0839158755058" x2="216.79397779163375" y2="190.4115348192675" style="stroke:rgb(255,0,0);stroke-width:2" />
<line x1="216.79397779163375" y1="190.4115348192675" x2="212.51103864778017" y2="190.81114395597166" style="stroke:rgb(255,0,0);stroke-width:2" />
<line x1="212.51103864778017" y1="190.81114395597166" x2="208.25976305004156" y2="191.2822564234402" style="stroke:rgb(255,0,0);stroke-width:2" />
<line x1="208.25976305004156" y1="191.2822564234402" x2="204.04533052287508" y2="191.82429824370087" style="stroke:rgb(255,0,0);stroke-width:2" />
<line x1="204.04533052287508" y1="191.82429824370087" x2="199.8728757031316" y2="192.43660902229078" style="stroke:rgb(255,0,0);stroke-width:2" />
<line x1="199.8728757031316" y1="192.43660902229078" x2="195.74748208429148" y2="193.11844275284548" style="stroke:rgb(255,0,0);stroke-width:2" />
<line x1="195.74748208429148" y1="193.11844275284548" x2="191.674175823011" y2="193.86896872599277" style="stroke:rgb(255,0,0);stroke-width:2" />
<line x1="191.674175823011" y1="193.86896872599277" x2="187.65791961552492" y2="194.68727254144395" style="stroke:rgb(255,0,0);stroke-width:2" />
<line x1="187.65791961552492" y1="194.68727254144395" x2="183.70360665136533" y2="195.57235722205" style="stroke:rgb(255,0,0);stroke-width:2" />
<line x1="183.70360665136533" y1="195.57235722205" x2="179.8160546517637" y2="196.52314442846438" style="stroke:rgb(255,0,0);stroke-width:2" />
<line x1="179.8160546517637" y1="196.52314442846438" x2="176.0" y2="197.53847577293368" style="stroke:rgb(255,0,0);stroke-width:2" />
<line x1="176.0" y1="197.53847577293368" x2="172.26009197084943" y2="198.61711423061442" style="stroke:rgb(255,0,0);stroke-width:2" />
<line x1="172.26009197084943" y1="198.61711423061442" x2="168.6008870661567" y2="199.75774564669746" style="stroke:rgb(255,0,0);stroke-width:2" />
<line x1="168.6008870661567" y1="199.75774564669746" x2="165.02684346344088" y2="200.95898033750314" style="stroke:rgb(255,0,0);stroke-width:2" />
<line x1="165.02684346344088" y1="200.95898033750314" x2="161.54231558429268" y2="202.21935478359669" style="stroke:rgb(255,0,0);stroke-width:2" />
<line x1="161.54231558429268" y1="202.21935478359669" x2="158.15154878918258" y2="203.5373334128613" style="stroke:rgb(255,0,0);stroke-width:2" />
<line x1="158.15154878918258" y1="203.5373334128613" x2="154.8586742051428" y2="204.91131047135633" style="stroke:rgb(255,0,0);stroke-width:2" />
<line x1="154.8586742051428" y1="204.91131047135633" x2="151.66770369262542" y2="206.3396119796809" style="stroke:rgb(255,0,0);stroke-width:2" />
<line x1="151.66770369262542" y1="206.3396119796809" x2="148.58252495766862" y2="207.82049777246016" style="stroke:rgb(255,0,0);stroke-width:2" />
<line x1="148.58252495766862" y1="207.82049777246016" x2="145.60689681532574" y2="209.35216361846852" style="stroke:rgb(255,0,0);stroke-width:2" />
<line x1="145.60689681532574" y1="209.35216361846852" x2="142.74444461012777" y2="210.93274341880763" style="stroke:rgb(255,0,0);stroke-width:2" />
<line x1="142.74444461012777" y1="210.93274341880763" x2="139.9986557991598" y2="212.56031148046048" style="stroke:rgb(255,0,0);stroke-width:2" />
<line x1="139.9986557991598" y1="212.56031148046048" x2="137.37287570313157" y2="214.2328848624516" style="stroke:rgb(255,0,0);stroke-width:2" />
<line x1="137.37287570313157" y1="214.2328848624516" x2="134.87030343061983" y2="215.94842579175514" style="stroke:rgb(255,0,0);stroke-width:2" />
<line x1="134.87030343061983" y1="215.94842579175514" x2="132.49398798044683" y2="217.70484414600764" style="stroke:rgb(255,0,0);stroke-width:2" />
<line x1="132.49398798044683" y1="217.70484414600764" x2="130.2468245269452" y2="219.49999999999997" style="stroke:rgb(255,0,0);stroke-width:2" />
<line x1="130.2468245269452" y1="219.49999999999997" x2="128.13155089263415" y2="221.33170623284656" style="stroke:rgb(255,0,0);stroke-width:2" />
<line x1="128.13155089263415" y1="221.33170623284656" x2="126.15074421260411" y2="223.19773119265537" style="stroke:rgb(255,0,0);stroke-width:2" />
<line x1="126.15074421260411" y1="223.19773119265537" x2="124.30681779467488" y2="225.095801415452" style="stroke:rgb(255,0,0);stroke-width:2" />
<line x1="124.30681779467488" y1="225.095801415452" x2="122.60201817915159" y2="227.02360439504525" style="stroke:rgb(255,0,0);stroke-width:2" />
<line x1="122.60201817915159" y1="227.02360439504525" x2="121.03842240176145" y2="228.9787914004599" style="stroke:rgb(255,0,0);stroke-width:2" />
<line x1="121.03842240176145" y1="228.9787914004599" x2="119.61793546310581" y2="230.95898033750314" style="stroke:rgb(255,0,0);stroke-width:2" />
<line x1="119.61793546310581" y1="230.95898033750314" x2="118.34228800771017" y2="232.96175865098002" style="stroke:rgb(255,0,0);stroke-width:2" />
<line x1="118.34228800771017" y1="232.96175865098002" x2="117.21303421550044" y2="234.98468626401993" style="stroke:rgb(255,0,0);stroke-width:2" />
<line x1="117.21303421550044" y1="234.98468626401993" x2="116.2315499082743" y2="237.0252985509344" style="stroke:rgb(255,0,0);stroke-width:2" />
<line x1="116.2315499082743" y1="237.0252985509344" x2="115.39903087347402" y2="239.08110933998412" style="stroke:rgb(255,0,0);stroke-width:2" />
<line x1="115.39903087347402" y1="239.08110933998412" x2="114.71649140730372" y2="241.14961394239606" style="stroke:rgb(255,0,0);stroke-width:2" />
<line x1="114.71649140730372" y1="241.14961394239606" x2="114.18476307896584" y2="243.22829220394078" style="stroke:rgb(255,0,0);stroke-width:2" />
<line x1="114.18476307896584" y1="243.22829220394078" x2="113.80449371752196" y2="245.3146115753525" style="stroke:rgb(255,0,0);stroke-width:2" />
<line x1="113.80449371752196" y1="245.3146115753525" x2="113.57614662261302" y2="247.40603019784996" style="stroke:rgb(255,0,0);stroke-width:2" />
<polygon points="113.0,249 113.5,249.5 113.57614662261302,251.59396980215007 113.80449371752198,253.68538842464753 114.18476307896584,255.77170779605922 114.7164914073037,257.85038605760394 115.399030873474,259.9188906600158 116.23154990827429,261.97470144906555 117.21303421550044,264.01531373598004 118.34228800771014,266.0382413490199 119.61793546310581,268.04101966249686 121.03842240176145,270.0212085995401 122.60201817915157,271.97639560495475 124.30681779467488,273.904198584548 126.15074421260412,275.80226880734466 128.13155089263412,277.66829376715344 130.24682452694515,279.5 132.49398798044678,281.2951558539923 134.8703034306198,283.0515742082448 137.37287570313157,284.7671151375484 139.99865579915974,286.43968851953946 142.74444461012774,288.06725658119234 145.60689681532574,289.6478363815315 148.5825249576686,291.17950222753984 151.6677036926253,292.66038802031903 154.85867420514273,294.08868952864367 158.15154878918258,295.4626665871387 161.5423155842927,296.78064521640334 165.02684346344085,298.04101966249686 168.60088706615664,299.2422543533025 172.26009197084937,300.38288576938555 176.0,301.4615242270663 179.81605465176364,302.4768555715356 183.7036066513653,303.42764277795004 187.65791961552497,304.3127274585561 191.674175823011,305.1310312740072 195.7474820842914,305.8815572471545 199.87287570313157,306.5633909777092 204.0453305228751,307.17570175629913 208.2597630500415,307.71774357655977 212.51103864778008,308.18885604402834 216.7939777916337,308.5884651807325 221.10336237999178,308.9160841244942 225.43394209154332,309.1713137220964 229.7804407819843,309.35384301558946 234.13756291218738,309.46344962114574 238.5,309.5 242.8624370878126,309.46344962114574 247.21955921801566,309.35384301558946 251.56605790845666,309.1713137220964 255.89663762000816,308.9160841244942 260.2060222083663,308.5884651807325 264.4889613522199,308.18885604402834 268.74023694995844,307.71774357655977 272.95466947712487,307.17570175629913 277.12712429686843,306.5633909777092 281.2525179157086,305.8815572471545 285.325824176989,305.1310312740072 289.342080384475,304.3127274585561 293.2963933486347,303.42764277795004 297.1839453482363,302.4768555715356 301.0,301.4615242270663 304.73990802915057,300.38288576938555 308.39911293384336,299.2422543533025 311.97315653655915,298.04101966249686 315.45768441570726,296.78064521640334 318.8484512108174,295.4626665871387 322.14132579485727,294.08868952864367 325.33229630737463,292.6603880203191 328.4174750423314,291.17950222753984 331.39310318467426,289.6478363815315 334.25555538987226,288.0672565811924 337.0013442008402,286.4396885195395 339.62712429686843,284.7671151375484 342.1296965693802,283.0515742082448 344.5060120195532,281.2951558539923 346.75317547305485,279.5 348.86844910736585,277.66829376715344 350.84925578739586,275.80226880734466 352.6931822053251,273.904198584548 354.39798182084843,271.97639560495475 355.96157759823853,270.02120859954016 357.3820645368942,268.04101966249686 358.6577119922898,266.03824134902 359.78696578449956,264.01531373598004 360.7684500917257,261.97470144906555 361.600969126526,259.9188906600158 362.2835085926963,257.85038605760394 362.81523692103417,255.77170779605922 363.19550628247805,253.68538842464753 363.423853377387,251.59396980215004 363.5,249.5 363.423853377387,247.40603019784996 363.19550628247805,245.3146115753525 362.81523692103417,243.2282922039408 362.2835085926963,241.14961394239606 361.600969126526,239.08110933998418 360.7684500917257,237.02529855093445 359.78696578449956,234.98468626401996 358.6577119922899,232.96175865098007 357.3820645368942,230.95898033750314 355.96157759823853,228.97879140045987 354.39798182084843,227.02360439504528 352.6931822053251,225.095801415452 350.8492557873959,223.19773119265537 348.86844910736585,221.33170623284656 346.75317547305485,219.5 344.5060120195533,217.7048441460077 342.12969656938026,215.9484257917552 339.62712429686843,214.2328848624516 337.00134420084026,212.56031148046054 334.25555538987226,210.93274341880766 331.39310318467426,209.35216361846852 328.4174750423314,207.82049777246016 325.3322963073747,206.33961197968094 322.1413257948573,204.91131047135636 318.8484512108174,203.53733341286133 315.45768441570726,202.21935478359666 311.97315653655915,200.95898033750316 308.3991129338434,199.75774564669751 304.7399080291506,198.61711423061445 301.00000000000006,197.53847577293368 297.18394534823636,196.52314442846438 293.2963933486347,195.57235722205 289.342080384475,194.68727254144395 285.32582417698904,193.86896872599277 281.25251791570867,193.1184427528455 277.12712429686843,192.43660902229078 272.95466947712487,191.82429824370087 268.74023694995844,191.2822564234402 264.48896135222,190.81114395597166 260.2060222083663,190.4115348192675 255.8966376200081,190.0839158755058 251.56605790845668,189.82868627790359 247.2195592180157,189.64615698441054 242.8624370878127,189.53655037885426 238.50000000000003,189.5 234.13756291218735,189.53655037885426 229.78044078198434,189.64615698441054 225.43394209154337,189.82868627790359 221.1033623799918,190.0839158755058 216.79397779163375,190.4115348192675 212.51103864778017,190.81114395597166 208.25976305004156,191.2822564234402 204.04533052287508,191.82429824370087 199.8728757031316,192.43660902229078 195.74748208429148,193.11844275284548 191.674175823011,193.86896872599277 187.65791961552492,194.68727254144395 183.70360665136533,195.57235722205 179.8160546517637,196.52314442846438 176.0,197.53847577293368 172.26009197084943,198.61711423061442 168.6008870661567,199.75774564669746 165.02684346344088,200.95898033750314 161.54231558429268,202.21935478359669 158.15154878918258,203.5373334128613 154.8586742051428,204.91131047135633 151.66770369262542,206.3396119796809 148.58252495766862,207.82049777246016 145.60689681532574,209.35216361846852 142.74444461012777,210.93274341880763 139.9986557991598,212.56031148046048 137.37287570313157,214.2328848624516 134.87030343061983,215.94842579175514 132.49398798044683,217.70484414600764 130.2468245269452,219.49999999999997 128.13155089263415,221.33170623284656 126.15074421260411,223.19773119265537 124.30681779467488,225.095801415452 122.60201817915159,227.02360439504525 121.03842240176145,228.9787914004599 119.61793546310581,230.95898033750314 118.34228800771017,232.96175865098002 117.21303421550044,234.98468626401993 116.2315499082743,237.0252985509344 115.39903087347402,239.08110933998412 114.71649140730372,241.14961394239606 114.18476307896584,243.22829220394078 113.80449371752196,245.3146115753525 " style="fill:blue;stroke:red;stroke-width:2" />
<line x1="313.0" y1="87" x2="313.5" y2="87.5" style="stroke:rgb(255,0,0);stroke-width:2" />
<line x1="313.5" y1="87.5" x2="313.53594120587337" y2="89.55907030544756" style="stroke:rgb(255,0,0);stroke-width:2" />
<line x1="313.53594120587337" y1="89.55907030544756" x2="313.64372103467036" y2="91.61563195090339" style="stroke:rgb(255,0,0);stroke-width:2" />
<line x1="313.64372103467036" y1="91.61563195090339" x2="313.8232081732719" y2="93.66717933279155" style="stroke:rgb(255,0,0);stroke-width:2" />
<line x1="313.8232081732719" y1="93.66717933279155" x2="314.07418394424735" y2="95.71121295664386" style="stroke:rgb(255,0,0);stroke-width:2" />
<line x1="314.07418394424735" y1="95.71121295664386" x2="314.3963425722797" y2="97.74524248234889" style="stroke:rgb(255,0,0);stroke-width:2" />
<line x1="314.3963425722797" y1="97.74524248234889" x2="314.78929155670545" y2="99.7667897582478" style="stroke:rgb(255,0,0);stroke-width:2" />
<line x1="314.78929155670545" y1="99.7667897582478" x2="315.2525521497162" y2="101.7733918403804" style="stroke:rgb(255,0,0);stroke-width:2" />
<line x1="315.2525521497162" y1="101.7733918403804" x2="315.7855599396392" y2="103.76260399320296" style="stroke:rgb(255,0,0);stroke-width:2" />
<line x1="315.7855599396392" y1="103.76260399320296" x2="316.38766553858596" y2="105.7320026681219" style="stroke:rgb(255,0,0);stroke-width:2" />
<line x1="316.38766553858596" y1="105.7320026681219" x2="317.0581353736314" y2="107.67918845621446" style="stroke:rgb(255,0,0);stroke-width:2" />
<line x1="317.0581353736314" y1="107.67918845621446" x2="317.7961525805595" y2="109.60178901153881" style="stroke:rgb(255,0,0);stroke-width:2" />
<line x1="317.7961525805595" y1="109.60178901153881" x2="318.60081799908653" y2="111.49746194147221" style="stroke:rgb(255,0,0);stroke-width:2" />
<line x1="318.60081799908653" y1="111.49746194147221" x2="319.47115126834916" y2="113.36389766055557" style="stroke:rgb(255,0,0);stroke-width:2" />
<line x1="319.47115126834916" y1="113.36389766055557" x2="320.40609202132333" y2="115.19882220436756" style="stroke:rgb(255,0,0);stroke-width:2" />
<line x1="320.40609202132333" y1="115.19882220436756" x2="321.4045011767181" y2="117.0" style="stroke:rgb(255,0,0);stroke-width:2" />
<line x1="321.4045011767181" y1="117.0" x2="322.46516232677084" y2="118.76523658975908" style="stroke:rgb(255,0,0);stroke-width:2" />
<line x1="322.46516232677084" y1="118.76523658975908" x2="323.58678321925254" y2="120.49238130477407" style="stroke:rgb(255,0,0);stroke-width:2" />
<line x1="323.58678321925254" y1="120.49238130477407" x2="324.7679973318781" y2="122.17932988525592" style="stroke:rgb(255,0,0);stroke-width:2" />
<line x1="324.7679973318781" y1="122.17932988525592" x2="326.0073655372034" y2="123.82402704421384" style="stroke:rgb(255,0,0);stroke-width:2" />
<line x1="326.0073655372034" y1="123.82402704421384" x2="327.3033778559803" y2="125.42446897150582" style="stroke:rgb(255,0,0);stroke-width:2" />
<line x1="327.3033778559803" y1="125.42446897150582" x2="328.65445529683376" y2="126.97870577517264" style="stroke:rgb(255,0,0);stroke-width:2" />
<line x1="328.65445529683376" y1="126.97870577517264" x2="330.0589517800196" y2="128.48484385708085" style="stroke:rgb(255,0,0);stroke-width:2" />
<line x1="330.0589517800196" y1="128.48484385708085" x2="331.5151561429192" y2="129.94104821998042" style="stroke:rgb(255,0,0);stroke-width:2" />
<line x1="331.5151561429192" y1="129.94104821998042" x2="333.0212942248274" y2="131.34554470316624" style="stroke:rgb(255,0,0);stroke-width:2" />
<line x1="333.0212942248274" y1="131.34554470316624" x2="334.5755310284942" y2="132.6966221440197" style="stroke:rgb(255,0,0);stroke-width:2" />
<line x1="334.5755310284942" y1="132.6966221440197" x2="336.17597295578616" y2="133.99263446279662" style="stroke:rgb(255,0,0);stroke-width:2" />
<line x1="336.17597295578616" y1="133.99263446279662" x2="337.8206701147441" y2="135.2320026681219" style="stroke:rgb(255,0,0);stroke-width:2" />
<line x1="337.8206701147441" y1="135.2320026681219" x2="339.5076186952259" y2="136.41321678074746" style="stroke:rgb(255,0,0);stroke-width:2" />
<line x1="339.5076186952259" y1="136.41321678074746" x2="341.23476341024093" y2="137.53483767322913" style="stroke:rgb(255,0,0);stroke-width:2" />
<line x1="341.23476341024093" y1="137.53483767322913" x2="343.0" y2="138.59549882328187" style="stroke:rgb(255,0,0);stroke-width:2" />
<line x1="343.0" y1="138.59549882328187" x2="344.80117779563244" y2="139.59390797867667" style="stroke:rgb(255,0,0);stroke-width:2" />
<line x1="344.80117779563244" y1="139.59390797867667" x2="346.63610233944445" y2="140.52884873165084" style="stroke:rgb(255,0,0);stroke-width:2" />
<line x1="346.63610233944445" y1="140.52884873165084" x2="348.50253805852776" y2="141.39918200091344" style="stroke:rgb(255,0,0);stroke-width:2" />
<line x1="348.50253805852776" y1="141.39918200091344" x2="350.3982109884612" y2="142.20384741944045" style="stroke:rgb(255,0,0);stroke-width:2" />
<line x1="350.3982109884612" y1="142.20384741944045" x2="352.32081154378557" y2="142.94186462636858" style="stroke:rgb(255,0,0);stroke-width:2" />
<line x1="352.32081154378557" y1="142.94186462636858" x2="354.2679973318781" y2="143.61233446141406" style="stroke:rgb(255,0,0);stroke-width:2" />
<line x1="354.2679973318781" y1="143.61233446141406" x2="356.23739600679704" y2="144.2144400603608" style="stroke:rgb(255,0,0);stroke-width:2" />
<line x1="356.23739600679704" y1="144.2144400603608" x2="358.2266081596196" y2="144.74744785028378" style="stroke:rgb(255,0,0);stroke-width:2" />
<line x1="358.2266081596196" y1="144.74744785028378" x2="360.2332102417522" y2="145.21070844329452" style="stroke:rgb(255,0,0);stroke-width:2" />
<line x1="360.2332102417522" y1="145.21070844329452" x2="362.2547575176511" y2="145.60365742772026" style="stroke:rgb(255,0,0);stroke-width:2" />
<line x1="362.2547575176511" y1="145.60365742772026" x2="364.28878704335614" y2="145.92581605575265" style="stroke:rgb(255,0,0);stroke-width:2" />
<line x1="364.28878704335614" y1="145.92581605575265" x2="366.33282066720847" y2="146.17679182672813" style="stroke:rgb(255,0,0);stroke-width:2" />
<line x1="366.33282066720847" y1="146.17679182672813" x2="368.3843680490966" y2="146.35627896532964" style="stroke:rgb(255,0,0);stroke-width:2" />
<line x1="368.3843680490966" y1="146.35627896532964" x2="370.44092969455244" y2="146.46405879412666" style="stroke:rgb(255,0,0);stroke-width:2" />
<line x1="370.44092969455244" y1="146.46405879412666" x2="372.5" y2="146.5" style="stroke:rgb(255,0,0);stroke-width:2" />
<line x1="372.5" y1="146.5" x2="374.55907030544756" y2="146.46405879412666" style="stroke:rgb(255,0,0);stroke-width:2" />
<line x1="374.55907030544756" y1="146.46405879412666" x2="376.6156319509034" y2="146.35627896532964" style="stroke:rgb(255,0,0);stroke-width:2" />
<line x1="376.6156319509034" y1="146.35627896532964" x2="378.66717933279153" y2="146.17679182672813" style="stroke:rgb(255,0,0);stroke-width:2" />
<line x1="378.66717933279153" y1="146.17679182672813" x2="380.71121295664386" y2="145.92581605575265" style="stroke:rgb(255,0,0);stroke-width:2" />
<line x1="380.71121295664386" y1="145.92581605575265" x2="382.7452424823489" y2="145.60365742772026" style="stroke:rgb(255,0,0);stroke-width:2" />
<line x1="382.7452424823489" y1="145.60365742772026" x2="384.7667897582478" y2="145.21070844329455" style="stroke:rgb(255,0,0);stroke-width:2" />
<line x1="384.7667897582478" y1="145.21070844329455" x2="386.7733918403804" y2="144.74744785028378" style="stroke:rgb(255,0,0);stroke-width:2" />
<line x1="386.7733918403804" y1="144.74744785028378" x2="388.76260399320296" y2="144.2144400603608" style="stroke:rgb(255,0,0);stroke-width:2" />
<line x1="388.76260399320296" y1="144.2144400603608" x2="390.7320026681219" y2="143.61233446141406" style="stroke:rgb(255,0,0);stroke-width:2" />
<line x1="390.7320026681219" y1="143.61233446141406" x2="392.67918845621443" y2="142.9418646263686" style="stroke:rgb(255,0,0);stroke-width:2" />
<line x1="392.67918845621443" y1="142.9418646263686" x2="394.6017890115388" y2="142.20384741944045" style="stroke:rgb(255,0,0);stroke-width:2" />
<line x1="394.6017890115388" y1="142.20384741944045" x2="396.4974619414722" y2="141.39918200091347" style="stroke:rgb(255,0,0);stroke-width:2" />
<line x1="396.4974619414722" y1="141.39918200091347" x2="398.36389766055555" y2="140.52884873165084" style="stroke:rgb(255,0,0);stroke-width:2" />
<line x1="398.36389766055555" y1="140.52884873165084" x2="400.19882220436756" y2="139.5939079786767" style="stroke:rgb(255,0,0);stroke-width:2" />
<line x1="400.19882220436756" y1="139.5939079786767" x2="402.0" y2="138.5954988232819" style="stroke:rgb(255,0,0);stroke-width:2" />
<line x1="402.0" y1="138.5954988232819" x2="403.76523658975907" y2="137.53483767322913" style="stroke:rgb(255,0,0);stroke-width:2" />
<line x1="403.76523658975907" y1="137.53483767322913" x2="405.4923813047741" y2="136.41321678074746" style="stroke:rgb(255,0,0);stroke-width:2" />
<line x1="405.4923813047741" y1="136.41321678074746" x2="407.1793298852559" y2="135.2320026681219" style="stroke:rgb(255,0,0);stroke-width:2" />
<line x1="407.1793298852559" y1="135.2320026681219" x2="408.82402704421384" y2="133.99263446279662" style="stroke:rgb(255,0,0);stroke-width:2" />
<line x1="408.82402704421384" y1="133.99263446279662" x2="410.4244689715058" y2="132.6966221440197" style="stroke:rgb(255,0,0);stroke-width:2" />
<line x1="410.4244689715058" y1="132.6966221440197" x2="411.9787057751726" y2="131.34554470316627" style="stroke:rgb(255,0,0);stroke-width:2" />
<line x1="411.9787057751726" y1="131.34554470316627" x2="413.4848438570808" y2="129.94104821998042" style="stroke:rgb(255,0,0);stroke-width:2" />
<line x1="413.4848438570808" y1="129.94104821998042" x2="414.9410482199804" y2="128.48484385708082" style="stroke:rgb(255,0,0);stroke-width:2" />
<line x1="414.9410482199804" y1="128.48484385708082" x2="416.34554470316624" y2="126.97870577517264" style="stroke:rgb(255,0,0);stroke-width:2" />
<line x1="416.34554470316624" y1="126.97870577517264" x2="417.69662214401967" y2="125.42446897150583" style="stroke:rgb(255,0,0);stroke-width:2" />
<line x1="417.69662214401967" y1="125.42446897150583" x2="418.9926344627966" y2="123.82402704421384" style="stroke:rgb(255,0,0);stroke-width:2" />
<line x1="418.9926344627966" y1="123.82402704421384" x2="420.2320026681219" y2="122.17932988525592" style="stroke:rgb(255,0,0);stroke-width:2" />
<line x1="420.2320026681219" y1="122.17932988525592" x2="421.41321678074746" y2="120.49238130477407" style="stroke:rgb(255,0,0);stroke-width:2" />
<line x1="421.41321678074746" y1="120.49238130477407" x2="422.53483767322916" y2="118.76523658975908" style="stroke:rgb(255,0,0);stroke-width:2" />
<line x1="422.53483767322916" y1="118.76523658975908" x2="423.5954988232819" y2="117.0" style="stroke:rgb(255,0,0);stroke-width:2" />
<line x1="423.5954988232819" y1="117.0" x2="424.59390797867667" y2="115.19882220436757" style="stroke:rgb(255,0,0);stroke-width:2" />
<line x1="424.59390797867667" y1="115.19882220436757" x2="425.52884873165084" y2="113.36389766055557" style="stroke:rgb(255,0,0);stroke-width:2" />
<line x1="425.52884873165084" y1="113.36389766055557" x2="426.39918200091347" y2="111.49746194147222" style="stroke:rgb(255,0,0);stroke-width:2" />
<line x1="426.39918200091347" y1="111.49746194147222" x2="427.2038474194404" y2="109.60178901153883" style="stroke:rgb(255,0,0);stroke-width:2" />
<line x1="427.2038474194404" y1="109.60178901153883" x2="427.9418646263686" y2="107.67918845621446" style="stroke:rgb(255,0,0);stroke-width:2" />
<line x1="427.9418646263686" y1="107.67918845621446" x2="428.61233446141404" y2="105.73200266812191" style="stroke:rgb(255,0,0);stroke-width:2" />
<line x1="428.61233446141404" y1="105.73200266812191" x2="429.2144400603608" y2="103.76260399320299" style="stroke:rgb(255,0,0);stroke-width:2" />
<line x1="429.2144400603608" y1="103.76260399320299" x2="429.7474478502838" y2="101.7733918403804" style="stroke:rgb(255,0,0);stroke-width:2" />
<line x1="429.7474478502838" y1="101.7733918403804" x2="430.21070844329455" y2="99.7667897582478" style="stroke:rgb(255,0,0);stroke-width:2" />
<line x1="430.21070844329455" y1="99.7667897582478" x2="430.6036574277203" y2="97.74524248234889" style="stroke:rgb(255,0,0);stroke-width:2" />
<line x1="430.6036574277203" y1="97.74524248234889" x2="430.92581605575265" y2="95.71121295664388" style="stroke:rgb(255,0,0);stroke-width:2" />
<line x1="430.92581605575265" y1="95.71121295664388" x2="431.1767918267281" y2="93.66717933279158" style="stroke:rgb(255,0,0);stroke-width:2" />
<line x1="431.1767918267281" y1="93.66717933279158" x2="431.35627896532964" y2="91.6156319509034" style="stroke:rgb(255,0,0);stroke-width:2" />
<line x1="431.35627896532964" y1="91.6156319509034" x2="431.46405879412663" y2="89.55907030544753" style="stroke:rgb(255,0,0);stroke-width:2" />
<line x1="431.46405879412663" y1="89.55907030544753" x2="431.5" y2="87.50000000000001" style="stroke:rgb(255,0,0);stroke-width:2" />
<line x1="431.5" y1="87.50000000000001" x2="431.46405879412663" y2="85.44092969455245" style="stroke:rgb(255,0,0);stroke-width:2" />
<line x1="431.46405879412663" y1="85.44092969455245" x2="431.35627896532964" y2="83.38436804909664" style="stroke:rgb(255,0,0);stroke-width:2" />
<line x1="431.35627896532964" y1="83.38436804909664" x2="431.1767918267281" y2="81.33282066720847" style="stroke:rgb(255,0,0);stroke-width:2" />
<line x1="431.1767918267281" y1="81.33282066720847" x2="430.92581605575265" y2="79.28878704335614" style="stroke:rgb(255,0,0);stroke-width:2" />
<line x1="430.92581605575265" y1="79.28878704335614" x2="430.6036574277203" y2="77.2547575176511" style="stroke:rgb(255,0,0);stroke-width:2" />
<line x1="430.6036574277203" y1="77.2547575176511" x2="430.21070844329455" y2="75.23321024175222" style="stroke:rgb(255,0,0);stroke-width:2" />
<line x1="430.21070844329455" y1="75.23321024175222" x2="429.7474478502838" y2="73.22660815961962" style="stroke:rgb(255,0,0);stroke-width:2" />
<line x1="429.7474478502838" y1="73.22660815961962" x2="429.2144400603608" y2="71.23739600679706" style="stroke:rgb(255,0,0);stroke-width:2" />
<line x1="429.2144400603608" y1="71.23739600679706" x2="428.61233446141404" y2="69.26799733187809" style="stroke:rgb(255,0,0);stroke-width:2" />
<line x1="428.61233446141404" y1="69.26799733187809" x2="427.9418646263686" y2="67.32081154378555" style="stroke:rgb(255,0,0);stroke-width:2" />
<line x1="427.9418646263686" y1="67.32081154378555" x2="427.2038474194405" y2="65.39821098846119" style="stroke:rgb(255,0,0);stroke-width:2" />
<line x1="427.2038474194405" y1="65.39821098846119" x2="426.39918200091347" y2="63.50253805852781" style="stroke:rgb(255,0,0);stroke-width:2" />
<line x1="426.39918200091347" y1="63.50253805852781" x2="425.52884873165084" y2="61.63610233944445" style="stroke:rgb(255,0,0);stroke-width:2" />
<line x1="425.52884873165084" y1="61.63610233944445" x2="424.59390797867667" y2="59.80117779563244" style="stroke:rgb(255,0,0);stroke-width:2" />
<line x1="424.59390797867667" y1="59.80117779563244" x2="423.5954988232819" y2="57.99999999999999" style="stroke:rgb(255,0,0);stroke-width:2" />
<line x1="423.5954988232819" y1="57.99999999999999" x2="422.53483767322916" y2="56.234763410240916" style="stroke:rgb(255,0,0);stroke-width:2" />
<line x1="422.53483767322916" y1="56.234763410240916" x2="421.41321678074746" y2="54.50761869522594" style="stroke:rgb(255,0,0);stroke-width:2" />
<line x1="421.41321678074746" y1="54.50761869522594" x2="420.23200266812194" y2="52.82067011474409" style="stroke:rgb(255,0,0);stroke-width:2" />
<line x1="420.23200266812194" y1="52.82067011474409" x2="418.9926344627966" y2="51.175972955786186" style="stroke:rgb(255,0,0);stroke-width:2" />
<line x1="418.9926344627966" y1="51.175972955786186" x2="417.6966221440197" y2="49.57553102849418" style="stroke:rgb(255,0,0);stroke-width:2" />
<line x1="417.6966221440197" y1="49.57553102849418" x2="416.34554470316624" y2="48.021294224827365" style="stroke:rgb(255,0,0);stroke-width:2" />
<line x1="416.34554470316624" y1="48.021294224827365" x2="414.9410482199804" y2="46.51515614291915" style="stroke:rgb(255,0,0);stroke-width:2" />
<line x1="414.9410482199804" y1="46.51515614291915" x2="413.4848438570809" y2="45.0589517800196" style="stroke:rgb(255,0,0);stroke-width:2" />
<line x1="413.4848438570809" y1="45.0589517800196" x2="411.97870577517267" y2="43.65445529683375" style="stroke:rgb(255,0,0);stroke-width:2" />
<line x1="411.97870577517267" y1="43.65445529683375" x2="410.4244689715058" y2="42.3033778559803" style="stroke:rgb(255,0,0);stroke-width:2" />
<line x1="410.4244689715058" y1="42.3033778559803" x2="408.82402704421384" y2="41.00736553720339" style="stroke:rgb(255,0,0);stroke-width:2" />
<line x1="408.82402704421384" y1="41.00736553720339" x2="407.1793298852559" y2="39.76799733187811" style="stroke:rgb(255,0,0);stroke-width:2" />
<line x1="407.1793298852559" y1="39.76799733187811" x2="405.4923813047741" y2="38.58678321925256" style="stroke:rgb(255,0,0);stroke-width:2" />
<line x1="405.4923813047741" y1="38.58678321925256" x2="403.76523658975907" y2="37.465162326770866" style="stroke:rgb(255,0,0);stroke-width:2" />
<line x1="403.76523658975907" y1="37.465162326770866" x2="402.0" y2="36.404501176718135" style="stroke:rgb(255,0,0);stroke-width:2" />
<line x1="402.0" y1="36.404501176718135" x2="400.19882220436756" y2="35.40609202132331" style="stroke:rgb(255,0,0);stroke-width:2" />
<line x1="400.19882220436756" y1="35.40609202132331" x2="398.3638976605556" y2="34.47115126834916" style="stroke:rgb(255,0,0);stroke-width:2" />
<line x1="398.3638976605556" y1="34.47115126834916" x2="396.4974619414722" y2="33.600817999086544" style="stroke:rgb(255,0,0);stroke-width:2" />
<line x1="396.4974619414722" y1="33.600817999086544" x2="394.6017890115388" y2="32.79615258055955" style="stroke:rgb(255,0,0);stroke-width:2" />
<line x1="394.6017890115388" y1="32.79615258055955" x2="392.6791884562145" y2="32.058135373631416" style="stroke:rgb(255,0,0);stroke-width:2" />
<line x1="392.6791884562145" y1="32.058135373631416" x2="390.73200266812194" y2="31.387665538585942" style="stroke:rgb(255,0,0);stroke-width:2" />
<line x1="390.73200266812194" y1="31.387665538585942" x2="388.76260399320296" y2="30.785559939639178" style="stroke:rgb(255,0,0);stroke-width:2" />
<line x1="388.76260399320296" y1="30.785559939639178" x2="386.7733918403804" y2="30.25255214971621" style="stroke:rgb(255,0,0);stroke-width:2" />
<line x1="386.7733918403804" y1="30.25255214971621" x2="384.76678975824785" y2="29.78929155670547" style="stroke:rgb(255,0,0);stroke-width:2" />
<line x1="384.76678975824785" y1="29.78929155670547" x2="382.7452424823489" y2="29.39634257227973" style="stroke:rgb(255,0,0);stroke-width:2" />
<line x1="382.7452424823489" y1="29.39634257227973" x2="380.7112129566438" y2="29.074183944247352" style="stroke:rgb(255,0,0);stroke-width:2" />
<line x1="380.7112129566438" y1="29.074183944247352" x2="378.66717933279153" y2="28.823208173271873" style="stroke:rgb(255,0,0);stroke-width:2" />
<line x1="378.66717933279153" y1="28.823208173271873" x2="376.61563195090343" y2="28.64372103467037" style="stroke:rgb(255,0,0);stroke-width:2" />
<line x1="376.61563195090343" y1="28.64372103467037" x2="374.5590703054476" y2="28.535941205873357" style="stroke:rgb(255,0,0);stroke-width:2" />
<line x1="374.5590703054476" y1="28.535941205873357" x2="372.5" y2="28.5" style="stroke:rgb(255,0,0);stroke-width:2" />
<line x1="372.5" y1="28.5" x2="370.44092969455244" y2="28.53594120587335" style="stroke:rgb(255,0,0);stroke-width:2" />
<line x1="370.44092969455244" y1="28.53594120587335" x2="368.3843680490966" y2="28.643721034670364" style="stroke:rgb(255,0,0);stroke-width:2" />
<line x1="368.3843680490966" y1="28.643721034670364" x2="366.33282066720847" y2="28.823208173271873" style="stroke:rgb(255,0,0);stroke-width:2" />
<line x1="366.33282066720847" y1="28.823208173271873" x2="364.28878704335614" y2="29.074183944247352" style="stroke:rgb(255,0,0);stroke-width:2" />
<line x1="364.28878704335614" y1="29.074183944247352" x2="362.2547575176511" y2="29.39634257227972" style="stroke:rgb(255,0,0);stroke-width:2" />
<line x1="362.2547575176511" y1="29.39634257227972" x2="360.23321024175226" y2="29.789291556705457" style="stroke:rgb(255,0,0);stroke-width:2" />
<line x1="360.23321024175226" y1="29.789291556705457" x2="358.2266081596196" y2="30.2525521497162" style="stroke:rgb(255,0,0);stroke-width:2" />
<line x1="358.2266081596196" y1="30.2525521497162" x2="356.23739600679704" y2="30.785559939639192" style="stroke:rgb(255,0,0);stroke-width:2" />
<line x1="356.23739600679704" y1="30.785559939639192" x2="354.2679973318781" y2="31.387665538585935" style="stroke:rgb(255,0,0);stroke-width:2" />
<line x1="354.2679973318781" y1="31.387665538585935" x2="352.32081154378557" y2="32.058135373631394" style="stroke:rgb(255,0,0);stroke-width:2" />
<line x1="352.32081154378557" y1="32.058135373631394" x2="350.3982109884612" y2="32.79615258055954" style="stroke:rgb(255,0,0);stroke-width:2" />
<line x1="350.3982109884612" y1="32.79615258055954" x2="348.50253805852776" y2="33.60081799908656" style="stroke:rgb(255,0,0);stroke-width:2" />
<line x1="348.50253805852776" y1="33.60081799908656" x2="346.63610233944445" y2="34.471151268349146" style="stroke:rgb(255,0,0);stroke-width:2" />
<line x1="346.63610233944445" y1="34.471151268349146" x2="344.80117779563244" y2="35.4060920213233" style="stroke:rgb(255,0,0);stroke-width:2" />
<line x1="344.80117779563244" y1="35.4060920213233" x2="343.0" y2="36.40450117671812" style="stroke:rgb(255,0,0);stroke-width:2" />
<line x1="343.0" y1="36.40450117671812" x2="341.23476341024093" y2="37.46516232677086" style="stroke:rgb(255,0,0);stroke-width:2" />
<line x1="341.23476341024093" y1="37.46516232677086" x2="339.507618695226" y2="38.58678321925252" style="stroke:rgb(255,0,0);stroke-width:2" />
<line x1="339.507618695226" y1="38.58678321925252" x2="337.8206701147441" y2="39.76799733187809" style="stroke:rgb(255,0,0);stroke-width:2" />
<line x1="337.8206701147441" y1="39.76799733187809" x2="336.17597295578616" y2="41.00736553720341" style="stroke:rgb(255,0,0);stroke-width:2" />
<line x1="336.17597295578616" y1="41.00736553720341" x2="334.5755310284942" y2="42.303377855980294" style="stroke:rgb(255,0,0);stroke-width:2" />
<line x1="334.5755310284942" y1="42.303377855980294" x2="333.0212942248274" y2="43.65445529683372" style="stroke:rgb(255,0,0);stroke-width:2" />
<line x1="333.0212942248274" y1="43.65445529683372" x2="331.5151561429192" y2="45.05895178001955" style="stroke:rgb(255,0,0);stroke-width:2" />
<line x1="331.5151561429192" y1="45.05895178001955" x2="330.0589517800196" y2="46.51515614291914" style="stroke:rgb(255,0,0);stroke-width:2" />
<line x1="330.0589517800196" y1="46.51515614291914" x2="328.65445529683376" y2="48.02129422482737" style="stroke:rgb(255,0,0);stroke-width:2" />
<line x1="328.65445529683376" y1="48.02129422482737" x2="327.30337785598033" y2="49.57553102849416" style="stroke:rgb(255,0,0);stroke-width:2" />
<line x1="327.30337785598033" y1="49.57553102849416" x2="326.00736553720344" y2="51.17597295578613" style="stroke:rgb(255,0,0);stroke-width:2" />
<line x1="326.00736553720344" y1="51.17597295578613" x2="324.7679973318781" y2="52.820670114744075" style="stroke:rgb(255,0,0);stroke-width:2" />
<line x1="324.7679973318781" y1="52.820670114744075" x2="323.58678321925254" y2="54.50761869522591" style="stroke:rgb(255,0,0);stroke-width:2" />
<line x1="323.58678321925254" y1="54.50761869522591" x2="322.4651623267709" y2="56.23476341024086" style="stroke:rgb(255,0,0);stroke-width:2" />
<line x1="322.4651623267709" y1="56.23476341024086" x2="321.40450117671816" y2="57.99999999999997" style="stroke:rgb(255,0,0);stroke-width:2" />
<line x1="321.40450117671816" y1="57.99999999999997" x2="320.40609202132333" y2="59.80117779563244" style="stroke:rgb(255,0,0);stroke-width:2" />
<line x1="320.40609202132333" y1="59.80117779563244" x2="319.47115126834916" y2="61.636102339444456" style="stroke:rgb(255,0,0);stroke-width:2" />
<line x1="319.47115126834916" y1="61.636102339444456" x2="318.60081799908653" y2="63.50253805852779" style="stroke:rgb(255,0,0);stroke-width:2" />
<line x1="318.60081799908653" y1="63.50253805852779" x2="317.7961525805596" y2="65.39821098846117" style="stroke:rgb(255,0,0);stroke-width:2" />
<line x1="317.7961525805596" y1="65.39821098846117" x2="317.0581353736314" y2="67.32081154378555" style="stroke:rgb(255,0,0);stroke-width:2" />
<line x1="317.0581353736314" y1="67.32081154378555" x2="316.38766553858596" y2="69.26799733187809" style="stroke:rgb(255,0,0);stroke-width:2" />
<line x1="316.38766553858596" y1="69.26799733187809" x2="315.7855599396392" y2="71.23739600679701" style="stroke:rgb(255,0,0);stroke-width:2" />
<line x1="315.7855599396392" y1="71.23739600679701" x2="315.2525521497162" y2="73.2266081596196" style="stroke:rgb(255,0,0);stroke-width:2" />
<line x1="315.2525521497162" y1="73.2266081596196" x2="314.78929155670545" y2="75.23321024175218" style="stroke:rgb(255,0,0);stroke-width:2" />
<line x1="314.78929155670545" y1="75.23321024175218" x2="314.39634257227976" y2="77.25475751765106" style="stroke:rgb(255,0,0);stroke-width:2" />
<line x1="314.39634257227976" y1="77.25475751765106" x2="314.07418394424735" y2="79.28878704335611" style="stroke:rgb(255,0,0);stroke-width:2" />
<line x1="314.07418394424735" y1="79.28878704335611" x2="313.8232081732719" y2="81.33282066720845" style="stroke:rgb(255,0,0);stroke-width:2" />
<line x1="313.8232081732719" y1="81.33282066720845" x2="313.64372103467036" y2="83.38436804909664" style="stroke:rgb(255,0,0);stroke-width:2" />
<line x1="313.64372103467036" y1="83.38436804909664" x2="313.53594120587337" y2="85.44092969455245" style="stroke:rgb(255,0,0);stroke-width:2" />
<polygon points="313.0,87 313.5,87.5 313.53594120587337,89.55907030544756 313.64372103467036,91.61563195090339 313.8232081732719,93.66717933279155 314.07418394424735,95.71121295664386 314.3963425722797,97.74524248234889 314.78929155670545,99.7667897582478 315.2525521497162,101.7733918403804 315.7855599396392,103.76260399320296 316.38766553858596,105.7320026681219 317.0581353736314,107.67918845621446 317.7961525805595,109.60178901153881 318.60081799908653,111.49746194147221 319.47115126834916,113.36389766055557 320.40609202132333,115.19882220436756 321.4045011767181,117.0 322.46516232677084,118.76523658975908 323.58678321925254,120.49238130477407 324.7679973318781,122.17932988525592 326.0073655372034,123.82402704421384 327.3033778559803,125.42446897150582 328.65445529683376,126.97870577517264 330.0589517800196,128.48484385708085 331.5151561429192,129.94104821998042 333.0212942248274,131.34554470316624 334.5755310284942,132.6966221440197 336.17597295578616,133.99263446279662 337.8206701147441,135.2320026681219 339.5076186952259,136.41321678074746 341.23476341024093,137.53483767322913 343.0,138.59549882328187 344.80117779563244,139.59390797867667 346.63610233944445,140.52884873165084 348.50253805852776,141.39918200091344 350.3982109884612,142.20384741944045 352.32081154378557,142.94186462636858 354.2679973318781,143.61233446141406 356.23739600679704,144.2144400603608 358.2266081596196,144.74744785028378 360.2332102417522,145.21070844329452 362.2547575176511,145.60365742772026 364.28878704335614,145.92581605575265 366.33282066720847,146.17679182672813 368.3843680490966,146.35627896532964 370.44092969455244,146.46405879412666 372.5,146.5 374.55907030544756,146.46405879412666 376.6156319509034,146.35627896532964 378.66717933279153,146.17679182672813 380.71121295664386,145.92581605575265 382.7452424823489,145.60365742772026 384.7667897582478,145.21070844329455 386.7733918403804,144.74744785028378 388.76260399320296,144.2144400603608 390.7320026681219,143.61233446141406 392.67918845621443,142.9418646263686 394.6017890115388,142.20384741944045 396.4974619414722,141.39918200091347 398.36389766055555,140.52884873165084 400.19882220436756,139.5939079786767 402.0,138.5954988232819 403.76523658975907,137.53483767322913 405.4923813047741,136.41321678074746 407.1793298852559,135.2320026681219 408.82402704421384,133.99263446279662 410.4244689715058,132.6966221440197 411.9787057751726,131.34554470316627 413.4848438570808,129.94104821998042 414.9410482199804,128.48484385708082 416.34554470316624,126.97870577517264 417.69662214401967,125.42446897150583 418.9926344627966,123.82402704421384 420.2320026681219,122.17932988525592 421.41321678074746,120.49238130477407 422.53483767322916,118.76523658975908 423.5954988232819,117.0 424.59390797867667,115.19882220436757 425.52884873165084,113.36389766055557 426.39918200091347,111.49746194147222 427.2038474194404,109.60178901153883 427.9418646263686,107.67918845621446 428.61233446141404,105.73200266812191 429.2144400603608,103.76260399320299 429.7474478502838,101.7733918403804 430.21070844329455,99.7667897582478 430.6036574277203,97.74524248234889 430.92581605575265,95.71121295664388 431.1767918267281,93.66717933279158 431.35627896532964,91.6156319509034 431.46405879412663,89.55907030544753 431.5,87.50000000000001 431.46405879412663,85.44092969455245 431.35627896532964,83.38436804909664 431.1767918267281,81.33282066720847 430.92581605575265,79.28878704335614 430.6036574277203,77.2547575176511 430.21070844329455,75.23321024175222 429.7474478502838,73.22660815961962 429.2144400603608,71.23739600679706 428.61233446141404,69.26799733187809 427.9418646263686,67.32081154378555 427.2038474194405,65.39821098846119 426.39918200091347,63.50253805852781 425.52884873165084,61.63610233944445 424.59390797867667,59.80117779563244 423.5954988232819,57.99999999999999 422.53483767322916,56.234763410240916 421.41321678074746,54.50761869522594 420.23200266812194,52.82067011474409 418.9926344627966,51.175972955786186 417.6966221440197,49.57553102849418 416.34554470316624,48.021294224827365 414.9410482199804,46.51515614291915 413.4848438570809,45.0589517800196 411.97870577517267,43.65445529683375 410.4244689715058,42.3033778559803 408.82402704421384,41.00736553720339 407.1793298852559,39.76799733187811 405.4923813047741,38.58678321925256 403.76523658975907,37.465162326770866 402.0,36.404501176718135 400.19882220436756,35.40609202132331 398.3638976605556,34.47115126834916 396.4974619414722,33.600817999086544 394.6017890115388,32.79615258055955 392.6791884562145,32.058135373631416 390.73200266812194,31.387665538585942 388.76260399320296,30.785559939639178 386.7733918403804,30.25255214971621 384.76678975824785,29.78929155670547 382.7452424823489,29.39634257227973 380.7112129566438,29.074183944247352 378.66717933279153,28.823208173271873 376.61563195090343,28.64372103467037 374.5590703054476,28.535941205873357 372.5,28.5 370.44092969455244,28.53594120587335 368.3843680490966,28.643721034670364 366.33282066720847,28.823208173271873 364.28878704335614,29.074183944247352 362.2547575176511,29.39634257227972 360.23321024175226,29.789291556705457 358.2266081596196,30.2525521497162 356.23739600679704,30.785559939639192 354.2679973318781,31.387665538585935 352.32081154378557,32.058135373631394 350.3982109884612,32.79615258055954 348.50253805852776,33.60081799908656 346.63610233944445,34.471151268349146 344.80117779563244,35.4060920213233 343.0,36.40450117671812 341.23476341024093,37.46516232677086 339.507618695226,38.58678321925252 337.8206701147441,39.76799733187809 336.17597295578616,41.00736553720341 334.5755310284942,42.303377855980294 333.0212942248274,43.65445529683372 331.5151561429192,45.05895178001955 330.0589517800196,46.51515614291914 328.65445529683376,48.02129422482737 327.30337785598033,49.57553102849416 326.00736553720344,51.17597295578613 324.7679973318781,52.820670114744075 323.58678321925254,54.50761869522591 322.4651623267709,56.23476341024086 321.40450117671816,57.99999999999997 320.40609202132333,59.80117779563244 319.47115126834916,61.636102339444456 318.60081799908653,63.50253805852779 317.7961525805596,65.39821098846117 317.0581353736314,67.32081154378555 316.38766553858596,69.26799733187809 315.7855599396392,71.23739600679701 315.2525521497162,73.2266081596196 314.78929155670545,75.23321024175218 314.39634257227976,77.25475751765106 314.07418394424735,79.28878704335611 313.8232081732719,81.33282066720845 313.64372103467036,83.38436804909664 " style="fill:blue;stroke:red;stroke-width:2" />
<line x1="416.0" y1="213" x2="416.5" y2="213.5" style="stroke:rgb(255,0,0);stroke-width:2" />
<line x1="416.5" y1="213.5" x2="416.52497609221706" y2="217.5134421207876" style="stroke:rgb(255,0,0);stroke-width:2" />
<line x1="416.52497609221706" y1="217.5134421207876" x2="416.5998739393472" y2="221.52199448057442" style="stroke:rgb(255,0,0);stroke-width:2" />
<line x1="416.5998739393472" y1="221.52199448057442" x2="416.7246022899008" y2="225.52077327578016" style="stroke:rgb(255,0,0);stroke-width:2" />
<line x1="416.7246022899008" y1="225.52077327578016" x2="416.8990091815956" y2="229.50490661040752" style="stroke:rgb(255,0,0);stroke-width:2" />
<line x1="416.8990091815956" y1="229.50490661040752" x2="417.12288212649946" y2="233.469540431697" style="stroke:rgb(255,0,0);stroke-width:2" />
<line x1="417.12288212649946" y1="233.469540431697" x2="417.395948369914" y2="237.40984444404233" style="stroke:rgb(255,0,0);stroke-width:2" />
<line x1="417.395948369914" y1="237.40984444404233" x2="417.71787522268414" y2="241.3210179939618" style="stroke:rgb(255,0,0);stroke-width:2" />
<line x1="417.71787522268414" y1="241.3210179939618" x2="418.0882704665289" y2="245.1982959189549" style="stroke:rgb(255,0,0);stroke-width:2" />
<line x1="418.0882704665289" y1="245.1982959189549" x2="418.50668283189873" y2="249.03695435311894" style="stroke:rgb(255,0,0);stroke-width:2" />
<line x1="418.50668283189873" y1="249.03695435311894" x2="418.97260254777774" y2="252.83231648245192" style="stroke:rgb(255,0,0);stroke-width:2" />
<line x1="418.97260254777774" y1="252.83231648245192" x2="419.48546196276175" y2="256.5797582428299" style="stroke:rgb(255,0,0);stroke-width:2" />
<line x1="419.48546196276175" y1="256.5797582428299" x2="420.0446362366534" y2="260.274713953717" style="stroke:rgb(255,0,0);stroke-width:2" />
<line x1="420.0446362366534" y1="260.274713953717" x2="420.64944410173416" y2="263.9126818807439" style="stroke:rgb(255,0,0);stroke-width:2" />
<line x1="420.64944410173416" y1="263.9126818807439" x2="421.299148692784" y2="267.48922972037747" style="stroke:rgb(255,0,0);stroke-width:2" />
<line x1="421.299148692784" y1="267.48922972037747" x2="421.992958444838" y2="271.0" style="stroke:rgb(255,0,0);stroke-width:2" />
<line x1="421.992958444838" y1="271.0" x2="422.73002805758654" y2="274.44071538681857" style="stroke:rgb(255,0,0);stroke-width:2" />
<line x1="422.73002805758654" y1="274.44071538681857" x2="423.5094595252433" y2="277.8071838991359" style="stroke:rgb(255,0,0);stroke-width:2" />
<line x1="423.5094595252433" y1="277.8071838991359" x2="424.3303032306271" y2="281.0953040136344" style="stroke:rgb(255,0,0);stroke-width:2" />
<line x1="424.3303032306271" y1="281.0953040136344" x2="425.1915591021244" y2="284.3010696624507" style="stroke:rgb(255,0,0);stroke-width:2" />
<line x1="425.1915591021244" y1="284.3010696624507" x2="426.0921778321219" y2="287.420575113952" style="stroke:rgb(255,0,0);stroke-width:2" />
<line x1="426.0921778321219" y1="287.420575113952" x2="427.0310621554268" y2="290.4500197312687" style="stroke:rgb(255,0,0);stroke-width:2" />
<line x1="427.0310621554268" y1="290.4500197312687" x2="428.0070681861153" y2="293.3857126027847" style="stroke:rgb(255,0,0);stroke-width:2" />
<line x1="428.0070681861153" y1="293.3857126027847" x2="429.0190068111811" y2="296.22407703894487" style="stroke:rgb(255,0,0);stroke-width:2" />
<line x1="429.0190068111811" y1="296.22407703894487" x2="430.0656451392868" y2="298.9616549299003" style="stroke:rgb(255,0,0);stroke-width:2" />
<line x1="430.0656451392868" y1="298.9616549299003" x2="431.1457080028519" y2="301.5951109586825" style="stroke:rgb(255,0,0);stroke-width:2" />
<line x1="431.1457080028519" y1="301.5951109586825" x2="432.257879511648" y2="304.12123666477305" style="stroke:rgb(255,0,0);stroke-width:2" />
<line x1="432.257879511648" y1="304.12123666477305" x2="433.40080465600863" y2="306.536954353119" style="stroke:rgb(255,0,0);stroke-width:2" />
<line x1="433.40080465600863" y1="306.536954353119" x2="434.5730909576994" y2="308.8393208438298" style="stroke:rgb(255,0,0);stroke-width:2" />
<line x1="434.5730909576994" y1="308.8393208438298" x2="435.7733101664386" y2="311.025531057989" style="stroke:rgb(255,0,0);stroke-width:2" />
<line x1="435.7733101664386" y1="311.025531057989" x2="437.0" y2="313.0929214352104" style="stroke:rgb(255,0,0);stroke-width:2" />
<line x1="437.0" y1="313.0929214352104" x2="438.25166592577847" y2="315.0389731787766" style="stroke:rgb(255,0,0);stroke-width:2" />
<line x1="438.25166592577847" y1="315.0389731787766" x2="439.52678298164784" y2="316.8613153244042" style="stroke:rgb(255,0,0);stroke-width:2" />
<line x1="439.52678298164784" y1="316.8613153244042" x2="440.8237976338922" y2="318.5577276288991" style="stroke:rgb(255,0,0);stroke-width:2" />
<line x1="440.8237976338922" y1="318.5577276288991" x2="442.1411296699476" y2="320.12614327518054" style="stroke:rgb(255,0,0);stroke-width:2" />
<line x1="442.1411296699476" y1="320.12614327518054" x2="443.47717412364756" y2="321.5646513903795" style="stroke:rgb(255,0,0);stroke-width:2" />
<line x1="443.47717412364756" y1="321.5646513903795" x2="444.8303032306272" y2="322.87149937394264" style="stroke:rgb(255,0,0);stroke-width:2" />
<line x1="444.8303032306272" y1="322.87149937394264" x2="446.19886841150304" y2="324.04509503290666" style="stroke:rgb(255,0,0);stroke-width:2" />
<line x1="446.19886841150304" y1="324.04509503290666" x2="447.5812022804136" y2="325.0840085217396" style="stroke:rgb(255,0,0);stroke-width:2" />
<line x1="447.5812022804136" y1="325.0840085217396" x2="448.97562067647186" y2="325.9869740843876" style="stroke:rgb(255,0,0);stroke-width:2" />
<line x1="448.97562067647186" y1="325.9869740843876" x2="450.38042471565586" y2="326.7528915964039" style="stroke:rgb(255,0,0);stroke-width:2" />
<line x1="450.38042471565586" y1="326.7528915964039" x2="451.79390286063733" y2="327.38082790528057" style="stroke:rgb(255,0,0);stroke-width:2" />
<line x1="451.79390286063733" y1="327.38082790528057" x2="453.2143330060262" y2="327.87001796735143" style="stroke:rgb(255,0,0);stroke-width:2" />
<line x1="453.2143330060262" y1="327.87001796735143" x2="454.63998457649086" y2="328.2198657798798" style="stroke:rgb(255,0,0);stroke-width:2" />
<line x1="454.63998457649086" y1="328.2198657798798" x2="456.06912063519746" y2="328.42994510719603" style="stroke:rgb(255,0,0);stroke-width:2" />
<line x1="456.06912063519746" y1="328.42994510719603" x2="457.5" y2="328.5" style="stroke:rgb(255,0,0);stroke-width:2" />
<line x1="457.5" y1="328.5" x2="458.93087936480254" y2="328.42994510719603" style="stroke:rgb(255,0,0);stroke-width:2" />
<line x1="458.93087936480254" y1="328.42994510719603" x2="460.36001542350914" y2="328.2198657798798" style="stroke:rgb(255,0,0);stroke-width:2" />
<line x1="460.36001542350914" y1="328.2198657798798" x2="461.7856669939738" y2="327.87001796735143" style="stroke:rgb(255,0,0);stroke-width:2" />
<line x1="461.7856669939738" y1="327.87001796735143" x2="463.20609713936267" y2="327.3808279052806" style="stroke:rgb(255,0,0);stroke-width:2" />
<line x1="463.20609713936267" y1="327.3808279052806" x2="464.61957528434414" y2="326.7528915964039" style="stroke:rgb(255,0,0);stroke-width:2" />
<line x1="464.61957528434414" y1="326.7528915964039" x2="466.02437932352814" y2="325.98697408438767" style="stroke:rgb(255,0,0);stroke-width:2" />
<line x1="466.02437932352814" y1="325.98697408438767" x2="467.4187977195864" y2="325.0840085217396" style="stroke:rgb(255,0,0);stroke-width:2" />
<line x1="467.4187977195864" y1="325.0840085217396" x2="468.80113158849696" y2="324.04509503290666" style="stroke:rgb(255,0,0);stroke-width:2" />
<line x1="468.80113158849696" y1="324.04509503290666" x2="470.1696967693728" y2="322.8714993739427" style="stroke:rgb(255,0,0);stroke-width:2" />
<line x1="470.1696967693728" y1="322.8714993739427" x2="471.52282587635244" y2="321.5646513903795" style="stroke:rgb(255,0,0);stroke-width:2" />
<line x1="471.52282587635244" y1="321.5646513903795" x2="472.8588703300524" y2="320.12614327518054" style="stroke:rgb(255,0,0);stroke-width:2" />
<line x1="472.8588703300524" y1="320.12614327518054" x2="474.1762023661078" y2="318.5577276288991" style="stroke:rgb(255,0,0);stroke-width:2" />
<line x1="474.1762023661078" y1="318.5577276288991" x2="475.47321701835216" y2="316.8613153244042" style="stroke:rgb(255,0,0);stroke-width:2" />
<line x1="475.47321701835216" y1="316.8613153244042" x2="476.74833407422153" y2="315.0389731787766" style="stroke:rgb(255,0,0);stroke-width:2" />
<line x1="476.74833407422153" y1="315.0389731787766" x2="478.0" y2="313.0929214352104" style="stroke:rgb(255,0,0);stroke-width:2" />
<line x1="478.0" y1="313.0929214352104" x2="479.2266898335614" y2="311.025531057989" style="stroke:rgb(255,0,0);stroke-width:2" />
<line x1="479.2266898335614" y1="311.025531057989" x2="480.4269090423006" y2="308.8393208438298" style="stroke:rgb(255,0,0);stroke-width:2" />
<line x1="480.4269090423006" y1="308.8393208438298" x2="481.59919534399137" y2="306.536954353119" style="stroke:rgb(255,0,0);stroke-width:2" />
<line x1="481.59919534399137" y1="306.536954353119" x2="482.742120488352" y2="304.12123666477305" style="stroke:rgb(255,0,0);stroke-width:2" />
<line x1="482.742120488352" y1="304.12123666477305" x2="483.8542919971481" y2="301.5951109586825" style="stroke:rgb(255,0,0);stroke-width:2" />
<line x1="483.8542919971481" y1="301.5951109586825" x2="484.9343548607132" y2="298.9616549299003" style="stroke:rgb(255,0,0);stroke-width:2" />
<line x1="484.9343548607132" y1="298.9616549299003" x2="485.9809931888189" y2="296.2240770389449" style="stroke:rgb(255,0,0);stroke-width:2" />
<line x1="485.9809931888189" y1="296.2240770389449" x2="486.9929318138847" y2="293.3857126027847" style="stroke:rgb(255,0,0);stroke-width:2" />
<line x1="486.9929318138847" y1="293.3857126027847" x2="487.96893784457313" y2="290.4500197312687" style="stroke:rgb(255,0,0);stroke-width:2" />
<line x1="487.96893784457313" y1="290.4500197312687" x2="488.90782216787807" y2="287.42057511395205" style="stroke:rgb(255,0,0);stroke-width:2" />
<line x1="488.90782216787807" y1="287.42057511395205" x2="489.8084408978756" y2="284.3010696624507" style="stroke:rgb(255,0,0);stroke-width:2" />
<line x1="489.8084408978756" y1="284.3010696624507" x2="490.6696967693728" y2="281.0953040136344" style="stroke:rgb(255,0,0);stroke-width:2" />
<line x1="490.6696967693728" y1="281.0953040136344" x2="491.4905404747567" y2="277.8071838991359" style="stroke:rgb(255,0,0);stroke-width:2" />
<line x1="491.4905404747567" y1="277.8071838991359" x2="492.26997194241346" y2="274.44071538681857" style="stroke:rgb(255,0,0);stroke-width:2" />
<line x1="492.26997194241346" y1="274.44071538681857" x2="493.007041555162" y2="271.0" style="stroke:rgb(255,0,0);stroke-width:2" />
<line x1="493.007041555162" y1="271.0" x2="493.700851307216" y2="267.48922972037747" style="stroke:rgb(255,0,0);stroke-width:2" />
<line x1="493.700851307216" y1="267.48922972037747" x2="494.35055589826584" y2="263.9126818807439" style="stroke:rgb(255,0,0);stroke-width:2" />
<line x1="494.35055589826584" y1="263.9126818807439" x2="494.9553637633466" y2="260.274713953717" style="stroke:rgb(255,0,0);stroke-width:2" />
<line x1="494.9553637633466" y1="260.274713953717" x2="495.51453803723825" y2="256.5797582428299" style="stroke:rgb(255,0,0);stroke-width:2" />
<line x1="495.51453803723825" y1="256.5797582428299" x2="496.02739745222226" y2="252.83231648245192" style="stroke:rgb(255,0,0);stroke-width:2" />
<line x1="496.02739745222226" y1="252.83231648245192" x2="496.49331716810127" y2="249.03695435311897" style="stroke:rgb(255,0,0);stroke-width:2" />
<line x1="496.49331716810127" y1="249.03695435311897" x2="496.9117295334711" y2="245.19829591895495" style="stroke:rgb(255,0,0);stroke-width:2" />
<line x1="496.9117295334711" y1="245.19829591895495" x2="497.28212477731586" y2="241.3210179939618" style="stroke:rgb(255,0,0);stroke-width:2" />
<line x1="497.28212477731586" y1="241.3210179939618" x2="497.604051630086" y2="237.40984444404233" style="stroke:rgb(255,0,0);stroke-width:2" />
<line x1="497.604051630086" y1="237.40984444404233" x2="497.87711787350054" y2="233.46954043169697" style="stroke:rgb(255,0,0);stroke-width:2" />
<line x1="497.87711787350054" y1="233.46954043169697" x2="498.1009908184044" y2="229.50490661040755" style="stroke:rgb(255,0,0);stroke-width:2" />
<line x1="498.1009908184044" y1="229.50490661040755" x2="498.2753977100992" y2="225.5207732757802" style="stroke:rgb(255,0,0);stroke-width:2" />
<line x1="498.2753977100992" y1="225.5207732757802" x2="498.4001260606528" y2="221.52199448057445" style="stroke:rgb(255,0,0);stroke-width:2" />
<line x1="498.4001260606528" y1="221.52199448057445" x2="498.47502390778294" y2="217.51344212078757" style="stroke:rgb(255,0,0);stroke-width:2" />
<line x1="498.47502390778294" y1="217.51344212078757" x2="498.5" y2="213.5" style="stroke:rgb(255,0,0);stroke-width:2" />
<line x1="498.5" y1="213.5" x2="498.47502390778294" y2="209.4865578792124" style="stroke:rgb(255,0,0);stroke-width:2" />
<line x1="498.47502390778294" y1="209.4865578792124" x2="498.4001260606528" y2="205.47800551942564" style="stroke:rgb(255,0,0);stroke-width:2" />
<line x1="498.4001260606528" y1="205.47800551942564" x2="498.2753977100992" y2="201.4792267242199" style="stroke:rgb(255,0,0);stroke-width:2" />
<line x1="498.2753977100992" y1="201.4792267242199" x2="498.1009908184044" y2="197.49509338959245" style="stroke:rgb(255,0,0);stroke-width:2" />
<line x1="498.1009908184044" y1="197.49509338959245" x2="497.87711787350054" y2="193.530459568303" style="stroke:rgb(255,0,0);stroke-width:2" />
<line x1="497.87711787350054" y1="193.530459568303" x2="497.604051630086" y2="189.59015555595772" style="stroke:rgb(255,0,0);stroke-width:2" />
<line x1="497.604051630086" y1="189.59015555595772" x2="497.28212477731586" y2="185.67898200603824" style="stroke:rgb(255,0,0);stroke-width:2" />
<line x1="497.28212477731586" y1="185.67898200603824" x2="496.9117295334711" y2="181.8017040810451" style="stroke:rgb(255,0,0);stroke-width:2" />
<line x1="496.9117295334711" y1="181.8017040810451" x2="496.49331716810127" y2="177.96304564688103" style="stroke:rgb(255,0,0);stroke-width:2" />
<line x1="496.49331716810127" y1="177.96304564688103" x2="496.02739745222226" y2="174.1676835175481" style="stroke:rgb(255,0,0);stroke-width:2" />
<line x1="496.02739745222226" y1="174.1676835175481" x2="495.51453803723825" y2="170.42024175717012" style="stroke:rgb(255,0,0);stroke-width:2" />
<line x1="495.51453803723825" y1="170.42024175717012" x2="494.95536376334667" y2="166.72528604628303" style="stroke:rgb(255,0,0);stroke-width:2" />
<line x1="494.95536376334667" y1="166.72528604628303" x2="494.35055589826584" y2="163.08731811925614" style="stroke:rgb(255,0,0);stroke-width:2" />
<line x1="494.35055589826584" y1="163.08731811925614" x2="493.700851307216" y2="159.51077027962253" style="stroke:rgb(255,0,0);stroke-width:2" />
<line x1="493.700851307216" y1="159.51077027962253" x2="493.007041555162" y2="156.0" style="stroke:rgb(255,0,0);stroke-width:2" />
<line x1="493.007041555162" y1="156.0" x2="492.26997194241346" y2="152.55928461318143" style="stroke:rgb(255,0,0);stroke-width:2" />
<line x1="492.26997194241346" y1="152.55928461318143" x2="491.4905404747567" y2="149.19281610086415" style="stroke:rgb(255,0,0);stroke-width:2" />
<line x1="491.4905404747567" y1="149.19281610086415" x2="490.6696967693729" y2="145.9046959863656" style="stroke:rgb(255,0,0);stroke-width:2" />
<line x1="490.6696967693729" y1="145.9046959863656" x2="489.8084408978756" y2="142.69893033754934" style="stroke:rgb(255,0,0);stroke-width:2" />
<line x1="489.8084408978756" y1="142.69893033754934" x2="488.9078221678781" y2="139.579424886048" style="stroke:rgb(255,0,0);stroke-width:2" />
<line x1="488.9078221678781" y1="139.579424886048" x2="487.9689378445732" y2="136.5499802687313" style="stroke:rgb(255,0,0);stroke-width:2" />
<line x1="487.9689378445732" y1="136.5499802687313" x2="486.9929318138847" y2="133.61428739721532" style="stroke:rgb(255,0,0);stroke-width:2" />
<line x1="486.9929318138847" y1="133.61428739721532" x2="485.9809931888189" y2="130.77592296105513" style="stroke:rgb(255,0,0);stroke-width:2" />
<line x1="485.9809931888189" y1="130.77592296105513" x2="484.9343548607132" y2="128.0383450700997" style="stroke:rgb(255,0,0);stroke-width:2" />
<line x1="484.9343548607132" y1="128.0383450700997" x2="483.8542919971481" y2="125.40488904131755" style="stroke:rgb(255,0,0);stroke-width:2" />
<line x1="483.8542919971481" y1="125.40488904131755" x2="482.742120488352" y2="122.87876333522695" style="stroke:rgb(255,0,0);stroke-width:2" />
<line x1="482.742120488352" y1="122.87876333522695" x2="481.5991953439914" y2="120.46304564688106" style="stroke:rgb(255,0,0);stroke-width:2" />
<line x1="481.5991953439914" y1="120.46304564688106" x2="480.4269090423006" y2="118.16067915617023" style="stroke:rgb(255,0,0);stroke-width:2" />
<line x1="480.4269090423006" y1="118.16067915617023" x2="479.2266898335614" y2="115.97446894201101" style="stroke:rgb(255,0,0);stroke-width:2" />
<line x1="479.2266898335614" y1="115.97446894201101" x2="478.0" y2="113.90707856478959" style="stroke:rgb(255,0,0);stroke-width:2" />
<line x1="478.0" y1="113.90707856478959" x2="476.74833407422153" y2="111.9610268212234" style="stroke:rgb(255,0,0);stroke-width:2" />
<line x1="476.74833407422153" y1="111.9610268212234" x2="475.4732170183522" y2="110.13868467559581" style="stroke:rgb(255,0,0);stroke-width:2" />
<line x1="475.4732170183522" y1="110.13868467559581" x2="474.1762023661078" y2="108.44227237110088" style="stroke:rgb(255,0,0);stroke-width:2" />
<line x1="474.1762023661078" y1="108.44227237110088" x2="472.8588703300524" y2="106.87385672481946" style="stroke:rgb(255,0,0);stroke-width:2" />
<line x1="472.8588703300524" y1="106.87385672481946" x2="471.52282587635244" y2="105.43534860962056" style="stroke:rgb(255,0,0);stroke-width:2" />
<line x1="471.52282587635244" y1="105.43534860962056" x2="470.1696967693729" y2="104.12850062605735" style="stroke:rgb(255,0,0);stroke-width:2" />
<line x1="470.1696967693729" y1="104.12850062605735" x2="468.80113158849696" y2="102.95490496709331" style="stroke:rgb(255,0,0);stroke-width:2" />
<line x1="468.80113158849696" y1="102.95490496709331" x2="467.4187977195864" y2="101.91599147826041" style="stroke:rgb(255,0,0);stroke-width:2" />
<line x1="467.4187977195864" y1="101.91599147826041" x2="466.02437932352814" y2="101.01302591561236" style="stroke:rgb(255,0,0);stroke-width:2" />
<line x1="466.02437932352814" y1="101.01302591561236" x2="464.61957528434414" y2="100.24710840359607" style="stroke:rgb(255,0,0);stroke-width:2" />
<line x1="464.61957528434414" y1="100.24710840359607" x2="463.20609713936267" y2="99.6191720947194" style="stroke:rgb(255,0,0);stroke-width:2" />
<line x1="463.20609713936267" y1="99.6191720947194" x2="461.7856669939738" y2="99.12998203264856" style="stroke:rgb(255,0,0);stroke-width:2" />
<line x1="461.7856669939738" y1="99.12998203264856" x2="460.36001542350914" y2="98.78013422012022" style="stroke:rgb(255,0,0);stroke-width:2" />
<line x1="460.36001542350914" y1="98.78013422012022" x2="458.9308793648026" y2="98.570054892804" style="stroke:rgb(255,0,0);stroke-width:2" />
<line x1="458.9308793648026" y1="98.570054892804" x2="457.5" y2="98.5" style="stroke:rgb(255,0,0);stroke-width:2" />
<line x1="457.5" y1="98.5" x2="456.06912063519746" y2="98.57005489280398" style="stroke:rgb(255,0,0);stroke-width:2" />
<line x1="456.06912063519746" y1="98.57005489280398" x2="454.63998457649086" y2="98.7801342201202" style="stroke:rgb(255,0,0);stroke-width:2" />
<line x1="454.63998457649086" y1="98.7801342201202" x2="453.2143330060262" y2="99.12998203264856" style="stroke:rgb(255,0,0);stroke-width:2" />
<line x1="453.2143330060262" y1="99.12998203264856" x2="451.79390286063733" y2="99.6191720947194" style="stroke:rgb(255,0,0);stroke-width:2" />
<line x1="451.79390286063733" y1="99.6191720947194" x2="450.38042471565586" y2="100.24710840359606" style="stroke:rgb(255,0,0);stroke-width:2" />
<line x1="450.38042471565586" y1="100.24710840359606" x2="448.9756206764719" y2="101.01302591561233" style="stroke:rgb(255,0,0);stroke-width:2" />
<line x1="448.9756206764719" y1="101.01302591561233" x2="447.58120228041366" y2="101.9159914782604" style="stroke:rgb(255,0,0);stroke-width:2" />
<line x1="447.58120228041366" y1="101.9159914782604" x2="446.19886841150304" y2="102.95490496709334" style="stroke:rgb(255,0,0);stroke-width:2" />
<line x1="446.19886841150304" y1="102.95490496709334" x2="444.8303032306272" y2="104.12850062605733" style="stroke:rgb(255,0,0);stroke-width:2" />
<line x1="444.8303032306272" y1="104.12850062605733" x2="443.4771741236476" y2="105.43534860962052" style="stroke:rgb(255,0,0);stroke-width:2" />
<line x1="443.4771741236476" y1="105.43534860962052" x2="442.1411296699476" y2="106.87385672481945" style="stroke:rgb(255,0,0);stroke-width:2" />
<line x1="442.1411296699476" y1="106.87385672481945" x2="440.8237976338922" y2="108.44227237110091" style="stroke:rgb(255,0,0);stroke-width:2" />
<line x1="440.8237976338922" y1="108.44227237110091" x2="439.52678298164784" y2="110.1386846755958" style="stroke:rgb(255,0,0);stroke-width:2" />
<line x1="439.52678298164784" y1="110.1386846755958" x2="438.25166592577847" y2="111.96102682122338" style="stroke:rgb(255,0,0);stroke-width:2" />
<line x1="438.25166592577847" y1="111.96102682122338" x2="437.0" y2="113.90707856478956" style="stroke:rgb(255,0,0);stroke-width:2" />
<line x1="437.0" y1="113.90707856478956" x2="435.7733101664386" y2="115.97446894201099" style="stroke:rgb(255,0,0);stroke-width:2" />
<line x1="435.7733101664386" y1="115.97446894201099" x2="434.5730909576994" y2="118.16067915617016" style="stroke:rgb(255,0,0);stroke-width:2" />
<line x1="434.5730909576994" y1="118.16067915617016" x2="433.40080465600863" y2="120.46304564688103" style="stroke:rgb(255,0,0);stroke-width:2" />
<line x1="433.40080465600863" y1="120.46304564688103" x2="432.257879511648" y2="122.87876333522699" style="stroke:rgb(255,0,0);stroke-width:2" />
<line x1="432.257879511648" y1="122.87876333522699" x2="431.1457080028519" y2="125.40488904131752" style="stroke:rgb(255,0,0);stroke-width:2" />
<line x1="431.1457080028519" y1="125.40488904131752" x2="430.06564513928686" y2="128.03834507009964" style="stroke:rgb(255,0,0);stroke-width:2" />
<line x1="430.06564513928686" y1="128.03834507009964" x2="429.01900681118116" y2="130.77592296105504" style="stroke:rgb(255,0,0);stroke-width:2" />
<line x1="429.01900681118116" y1="130.77592296105504" x2="428.0070681861153" y2="133.61428739721526" style="stroke:rgb(255,0,0);stroke-width:2" />
<line x1="428.0070681861153" y1="133.61428739721526" x2="427.0310621554268" y2="136.5499802687313" style="stroke:rgb(255,0,0);stroke-width:2" />
<line x1="427.0310621554268" y1="136.5499802687313" x2="426.09217783212193" y2="139.57942488604795" style="stroke:rgb(255,0,0);stroke-width:2" />
<line x1="426.09217783212193" y1="139.57942488604795" x2="425.1915591021244" y2="142.69893033754923" style="stroke:rgb(255,0,0);stroke-width:2" />
<line x1="425.1915591021244" y1="142.69893033754923" x2="424.3303032306272" y2="145.90469598636557" style="stroke:rgb(255,0,0);stroke-width:2" />
<line x1="424.3303032306272" y1="145.90469598636557" x2="423.5094595252433" y2="149.19281610086404" style="stroke:rgb(255,0,0);stroke-width:2" />
<line x1="423.5094595252433" y1="149.19281610086404" x2="422.73002805758654" y2="152.55928461318132" style="stroke:rgb(255,0,0);stroke-width:2" />
<line x1="422.73002805758654" y1="152.55928461318132" x2="421.992958444838" y2="155.99999999999994" style="stroke:rgb(255,0,0);stroke-width:2" />
<line x1="421.992958444838" y1="155.99999999999994" x2="421.299148692784" y2="159.51077027962256" style="stroke:rgb(255,0,0);stroke-width:2" />
<line x1="421.299148692784" y1="159.51077027962256" x2="420.64944410173416" y2="163.08731811925614" style="stroke:rgb(255,0,0);stroke-width:2" />
<line x1="420.64944410173416" y1="163.08731811925614" x2="420.04463623665333" y2="166.72528604628297" style="stroke:rgb(255,0,0);stroke-width:2" />
<line x1="420.04463623665333" y1="166.72528604628297" x2="419.48546196276175" y2="170.4202417571701" style="stroke:rgb(255,0,0);stroke-width:2" />
<line x1="419.48546196276175" y1="170.4202417571701" x2="418.97260254777774" y2="174.1676835175481" style="stroke:rgb(255,0,0);stroke-width:2" />
<line x1="418.97260254777774" y1="174.1676835175481" x2="418.50668283189873" y2="177.96304564688103" style="stroke:rgb(255,0,0);stroke-width:2" />
<line x1="418.50668283189873" y1="177.96304564688103" x2="418.0882704665289" y2="181.80170408104502" style="stroke:rgb(255,0,0);stroke-width:2" />
<line x1="418.0882704665289" y1="181.80170408104502" x2="417.71787522268414" y2="185.67898200603818" style="stroke:rgb(255,0,0);stroke-width:2" />
<line x1="417.71787522268414" y1="185.67898200603818" x2="417.395948369914" y2="189.5901555559576" style="stroke:rgb(255,0,0);stroke-width:2" />
<line x1="417.395948369914" y1="189.5901555559576" x2="417.12288212649946" y2="193.5304595683029" style="stroke:rgb(255,0,0);stroke-width:2" />
<line x1="417.12288212649946" y1="193.5304595683029" x2="416.8990091815956" y2="197.49509338959243" style="stroke:rgb(255,0,0);stroke-width:2" />
<line x1="416.8990091815956" y1="197.49509338959243" x2="416.7246022899008" y2="201.47922672421987" style="stroke:rgb(255,0,0);stroke-width:2" />
<line x1="416.7246022899008" y1="201.47922672421987" x2="416.5998739393472" y2="205.47800551942566" style="stroke:rgb(255,0,0);stroke-width:2" />
<line x1="416.5998739393472" y1="205.47800551942566" x2="416.52497609221706" y2="209.4865578792124" style="stroke:rgb(255,0,0);stroke-width:2" />
<polygon points="416.0,213 416.5,213.5 416.52497609221706,217.5134421207876 416.5998739393472,221.52199448057442 416.7246022899008,225.52077327578016 416.8990091815956,229.50490661040752 417.12288212649946,233.469540431697 417.395948369914,237.40984444404233 417.71787522268414,241.3210179939618 418.0882704665289,245.1982959189549 418.50668283189873,249.03695435311894 418.97260254777774,252.83231648245192 419.48546196276175,256.5797582428299 420.0446362366534,260.274713953717 420.64944410173416,263.9126818807439 421.299148692784,267.48922972037747 421.992958444838,271.0 422.73002805758654,274.44071538681857 423.5094595252433,277.8071838991359 424.3303032306271,281.0953040136344 425.1915591021244,284.3010696624507 426.0921778321219,287.420575113952 427.0310621554268,290.4500197312687 428.0070681861153,293.3857126027847 429.0190068111811,296.22407703894487 430.0656451392868,298.9616549299003 431.1457080028519,301.5951109586825 432.257879511648,304.12123666477305 433.40080465600863,306.536954353119 434.5730909576994,308.8393208438298 435.7733101664386,311.025531057989 437.0,313.0929214352104 438.25166592577847,315.0389731787766 439.52678298164784,316.8613153244042 440.8237976338922,318.5577276288991 442.1411296699476,320.12614327518054 443.47717412364756,321.5646513903795 444.8303032306272,322.87149937394264 446.19886841150304,324.04509503290666 447.5812022804136,325.0840085217396 448.97562067647186,325.9869740843876 450.38042471565586,326.7528915964039 451.79390286063733,327.38082790528057 453.2143330060262,327.87001796735143 454.63998457649086,328.2198657798798 456.06912063519746,328.42994510719603 457.5,328.5 458.93087936480254,328.42994510719603 460.36001542350914,328.2198657798798 461.7856669939738,327.87001796735143 463.20609713936267,327.3808279052806 464.61957528434414,326.7528915964039 466.02437932352814,325.98697408438767 467.4187977195864,325.0840085217396 468.80113158849696,324.04509503290666 470.1696967693728,322.8714993739427 471.52282587635244,321.5646513903795 472.8588703300524,320.12614327518054 474.1762023661078,318.5577276288991 475.47321701835216,316.8613153244042 476.74833407422153,315.0389731787766 478.0,313.0929214352104 479.2266898335614,311.025531057989 480.4269090423006,308.8393208438298 481.59919534399137,306.536954353119 482.742120488352,304.12123666477305 483.8542919971481,301.5951109586825 484.9343548607132,298.9616549299003 485.9809931888189,296.2240770389449 486.9929318138847,293.3857126027847 487.96893784457313,290.4500197312687 488.90782216787807,287.42057511395205 489.8084408978756,284.3010696624507 490.6696967693728,281.0953040136344 491.4905404747567,277.8071838991359 492.26997194241346,274.44071538681857 493.007041555162,271.0 493.700851307216,267.48922972037747 494.35055589826584,263.9126818807439 494.9553637633466,260.274713953717 495.51453803723825,256.5797582428299 496.02739745222226,252.83231648245192 496.49331716810127,249.03695435311897 496.9117295334711,245.19829591895495 497.28212477731586,241.3210179939618 497.604051630086,237.40984444404233 497.87711787350054,233.46954043169697 498.1009908184044,229.50490661040755 498.2753977100992,225.5207732757802 498.4001260606528,221.52199448057445 498.47502390778294,217.51344212078757 498.5,213.5 498.47502390778294,209.4865578792124 498.4001260606528,205.47800551942564 498.2753977100992,201.4792267242199 498.1009908184044,197.49509338959245 497.87711787350054,193.530459568303 497.604051630086,189.59015555595772 497.28212477731586,185.67898200603824 496.9117295334711,181.8017040810451 496.49331716810127,177.96304564688103 496.02739745222226,174.1676835175481 495.51453803723825,170.42024175717012 494.95536376334667,166.72528604628303 494.35055589826584,163.08731811925614 493.700851307216,159.51077027962253 493.007041555162,156.0 492.26997194241346,152.55928461318143 491.4905404747567,149.19281610086415 490.6696967693729,145.9046959863656 489.8084408978756,142.69893033754934 488.9078221678781,139.579424886048 487.9689378445732,136.5499802687313 486.9929318138847,133.61428739721532 485.9809931888189,130.77592296105513 484.9343548607132,128.0383450700997 483.8542919971481,125.40488904131755 482.742120488352,122.87876333522695 481.5991953439914,120.46304564688106 480.4269090423006,118.16067915617023 479.2266898335614,115.97446894201101 478.0,113.90707856478959 476.74833407422153,111.9610268212234 475.4732170183522,110.13868467559581 474.1762023661078,108.44227237110088 472.8588703300524,106.87385672481946 471.52282587635244,105.43534860962056 470.1696967693729,104.12850062605735 468.80113158849696,102.95490496709331 467.4187977195864,101.91599147826041 466.02437932352814,101.01302591561236 464.61957528434414,100.24710840359607 463.20609713936267,99.6191720947194 461.7856669939738,99.12998203264856 460.36001542350914,98.78013422012022 458.9308793648026,98.570054892804 457.5,98.5 456.06912063519746,98.57005489280398 454.63998457649086,98.7801342201202 453.2143330060262,99.12998203264856 451.79390286063733,99.6191720947194 450.38042471565586,100.24710840359606 448.9756206764719,101.01302591561233 447.58120228041366,101.9159914782604 446.19886841150304,102.95490496709334 444.8303032306272,104.12850062605733 443.4771741236476,105.43534860962052 442.1411296699476,106.87385672481945 440.8237976338922,108.44227237110091 439.52678298164784,110.1386846755958 438.25166592577847,111.96102682122338 437.0,113.90707856478956 435.7733101664386,115.97446894201099 434.5730909576994,118.16067915617016 433.40080465600863,120.46304564688103 432.257879511648,122.87876333522699 431.1457080028519,125.40488904131752 430.06564513928686,128.03834507009964 429.01900681118116,130.77592296105504 428.0070681861153,133.61428739721526 427.0310621554268,136.5499802687313 426.09217783212193,139.57942488604795 425.1915591021244,142.69893033754923 424.3303032306272,145.90469598636557 423.5094595252433,149.19281610086404 422.73002805758654,152.55928461318132 421.992958444838,155.99999999999994 421.299148692784,159.51077027962256 420.64944410173416,163.08731811925614 420.04463623665333,166.72528604628297 419.48546196276175,170.4202417571701 418.97260254777774,174.1676835175481 418.50668283189873,177.96304564688103 418.0882704665289,181.80170408104502 417.71787522268414,185.67898200603818 417.395948369914,189.5901555559576 417.12288212649946,193.5304595683029 416.8990091815956,197.49509338959243 416.7246022899008,201.47922672421987 416.5998739393472,205.47800551942566 " style="fill:blue;stroke:red;stroke-width:2" />
<line x1="380" y1="274" x2="327" y2="398" style="stroke:rgb(255,0,0);stroke-width:2" />
<line x1="178" y1="132" x2="274" y2="138" style="stroke:rgb(255,0,0);stroke-width:2" />
</svg>
